<svg width="57" height="59" viewBox="0 0 57 59" fill="none" xmlns="http://www.w3.org/2000/svg">
<path fill-rule="evenodd" clip-rule="evenodd" d="M5.42139 58.2744H38.5544C41.2619 58.2744 43.7196 57.1749 44.5793 55.7014C44.6289 55.9317 44.6374 56.1707 44.5998 56.4155L44.7717 55.2946C44.8218 55.1573 44.8581 55.018 44.8799 54.8764L46.5684 43.8484C46.1941 43.8947 45.8128 43.9188 45.4267 43.9188H7.67711C4.55713 44.0839 1.81556 45.801 1.14976 47.97L0.895612 49.6293C0.874 49.771 0.867558 49.9105 0.875663 50.0476L0.136502 54.8764C-0.149645 56.7453 2.22868 58.2742 5.42118 58.2742L5.42139 58.2744ZM46.4262 22.2783C46.0189 22.1641 45.5796 22.0793 45.116 22.0278C45.4194 22.1977 45.7737 22.2957 46.1523 22.2957C46.2452 22.2957 46.3369 22.2897 46.4264 22.2783H46.4262Z" fill="#06D2DD"/>
<path fill-rule="evenodd" clip-rule="evenodd" d="M13.7855 0.726074H51.0459C54.6364 0.726074 57.2975 2.81031 56.9594 5.35803L52.5685 38.4315C52.2304 40.9792 49.0159 43.0634 45.4253 43.0634H7.67568C4.28763 43.2424 1.34616 45.2517 1.02344 47.6823L1.63646 43.0634L6.64227 5.35803C6.98036 2.81031 10.1949 0.726074 13.7853 0.726074L13.7855 0.726074ZM46.1507 17.6192C47.2716 17.6192 48.1801 18.4746 48.1801 19.5297C48.1801 20.5848 47.2716 21.4399 46.1507 21.4399C45.03 21.4399 44.1215 20.5848 44.1215 19.5297C44.1215 18.4746 45.03 17.6192 46.1507 17.6192Z" fill="#005BFC"/>
</svg>
