<svg width="60" height="60" viewBox="0 0 60 60" fill="none" xmlns="http://www.w3.org/2000/svg">
<g clip-path="url(#clip0_1_1255)">
<path fill-rule="evenodd" clip-rule="evenodd" d="M1.39834 6.69475C0 9.38666 0 12.9232 0 19.9963V39.6201C0 46.6932 0 50.2298 1.39834 52.9217C2.5767 55.1901 4.4263 57.0397 6.69475 58.2181C9.38666 59.6164 12.9232 59.6164 19.9963 59.6164H39.6201C46.6932 59.6164 50.2298 59.6164 52.9217 58.2181C55.1901 57.0397 57.0397 55.1901 58.2181 52.9217C59.6164 50.2298 59.6164 46.6932 59.6164 39.6201V19.9963C59.6164 12.9232 59.6164 9.38666 58.2181 6.69475C57.0397 4.4263 55.1901 2.5767 52.9217 1.39834C50.2298 0 46.6932 0 39.6201 0H19.9963C12.9232 0 9.38666 0 6.69475 1.39834C4.4263 2.5767 2.5767 4.4263 1.39834 6.69475ZM21.2988 16.1469C22.4174 16.1262 23.5345 16.2408 24.6255 16.4885C25.5442 16.689 26.4163 17.0622 27.1957 17.5883C27.9155 18.1113 28.485 18.8146 28.8471 19.6273C29.2632 20.6268 29.464 21.7027 29.4363 22.785C29.4835 23.9733 29.1801 25.1493 28.5636 26.1664C27.9151 27.1269 27.0187 27.8941 25.9695 28.3865C27.3934 28.7703 28.6335 29.6496 29.467 30.8661C30.2672 32.1551 30.6693 33.6515 30.6232 35.168C30.6496 36.3771 30.3996 37.5762 29.8923 38.674C29.4233 39.6317 28.7367 40.4663 27.8873 41.111C27.0129 41.7486 26.0289 42.2204 24.9842 42.5028C23.9007 42.8025 22.7815 42.9531 21.6574 42.9503H9.31543V16.1469H21.2988ZM20.5867 26.9878C21.4656 27.024 22.3308 26.7609 23.0407 26.2415C23.3807 25.9388 23.6452 25.5608 23.813 25.1377C23.9809 24.7145 24.0474 24.258 24.0073 23.8045C24.0301 23.2749 23.9246 22.7477 23.6999 22.2675C23.5093 21.8853 23.2129 21.5658 22.846 21.3471C22.4744 21.1063 22.0569 20.9452 21.6199 20.874C21.1457 20.7822 20.6631 20.7404 20.1802 20.7493H14.9066V27.0117H20.5867V26.9878ZM20.8941 38.3991C21.4256 38.4063 21.956 38.3489 22.4737 38.2283C22.9469 38.1238 23.3956 37.9296 23.7955 37.6562C24.1874 37.3829 24.504 37.0152 24.716 36.5871C24.9619 36.0413 25.0748 35.4449 25.0456 34.8469C25.0989 34.302 25.0268 33.7521 24.8346 33.2394C24.6425 32.7267 24.3356 32.2648 23.9373 31.8891C23.0931 31.2673 22.0587 30.9593 21.0119 31.0181H14.9066V38.3991H20.8941ZM38.5865 38.3C39.0253 38.7068 39.5423 39.0201 40.1059 39.2209C40.6696 39.4217 41.2682 39.5058 41.8654 39.4681C42.8121 39.492 43.7404 39.204 44.5073 38.6484C45.1312 38.2427 45.6036 37.6424 45.8513 36.9406H50.3103C49.8352 38.9384 48.675 40.7065 47.0314 41.9376C45.4546 42.9841 43.5912 43.5141 41.6997 43.4541C40.3497 43.4718 39.0099 43.218 37.7599 42.7078C36.6292 42.2362 35.615 41.5234 34.7884 40.6192C33.9649 39.6717 33.3322 38.5739 32.9252 37.3864C32.4684 36.0589 32.2448 34.6624 32.2643 33.2587C32.256 31.8785 32.4871 30.5074 32.9474 29.2062C33.5658 27.3757 34.7482 25.7881 36.3249 24.6713C37.9016 23.5545 39.7916 22.9659 41.7236 22.9899C43.15 22.9601 44.5605 23.2939 45.8223 23.9599C46.9628 24.5853 47.9466 25.4612 48.6998 26.5216C49.4703 27.6343 50.0226 28.8831 50.3273 30.2018C50.6615 31.6178 50.7807 33.0761 50.6808 34.5276H37.3996C37.292 35.8913 37.7174 37.2436 38.5865 38.3ZM44.4134 28.1064C44.0417 27.7346 43.5947 27.4469 43.1024 27.2625C42.6102 27.078 42.0841 27.0013 41.5597 27.0373C40.8639 27.0108 40.1732 27.1649 39.5548 27.4848C39.0645 27.7547 38.6317 28.1178 38.2808 28.5538C37.9698 28.9626 37.7381 29.426 37.5977 29.92C37.4711 30.3321 37.3921 30.7572 37.362 31.1872H45.5883C45.5166 30.0663 45.1083 28.9931 44.4168 28.1081L44.4134 28.1064ZM46.6096 17.9367H36.3015V20.5717H46.6096V17.9367Z" fill="white"/>
</g>
<defs>
<clipPath id="clip0_1_1255">
<rect width="59.6164" height="59.6164" fill="white"/>
</clipPath>
</defs>
</svg>
