<svg width="35" height="34" viewBox="0 0 35 34" fill="none" xmlns="http://www.w3.org/2000/svg">
<path d="M16.2164 16.811C16.2164 16.811 17.8254 16.6886 17.8254 14.7616C17.8254 12.8361 16.7341 11.887 15.066 11.887L9.35168 11.8779V22.5188H15.1989C15.1989 22.5188 18.1226 22.6113 18.1226 19.3265C18.1226 19.3265 18.3373 16.811 16.2164 16.811ZM11.478 13.4741H14.4016C14.4016 13.4741 15.402 13.4905 15.402 14.7887C15.402 16.1343 14.4016 16.1343 14.4016 16.1343H11.478V13.4741ZM14.6674 20.9226H11.478V17.7304H14.6674C14.6674 17.7304 16.2621 17.7469 16.2621 19.3265C16.2621 20.9061 14.897 20.9226 14.6674 20.9226Z" fill="white"/>
<path d="M22.6411 14.5386C18.6474 14.5386 18.6543 18.5289 18.6543 18.5289C18.6543 18.5289 18.3886 22.5192 22.6411 22.5192C22.6411 22.5192 26.3621 22.5192 26.3621 19.3269H24.2358C24.2358 19.3269 24.2358 20.9231 22.6411 20.9231C22.6411 20.9231 21.0464 20.9231 21.0464 18.7949C21.0464 18.7949 25.299 18.7949 26.3621 18.7949C26.3621 17.7308 26.3621 14.5386 22.6411 14.5386ZM21.0464 17.7308C21.0464 17.7308 21.0113 16.1347 22.6411 16.1347C24.2704 16.1347 24.2358 17.7308 24.2358 17.7308H21.0464Z" fill="white"/>
<path d="M24.7675 12.9424H20.515V14.0065H24.7675V12.9424Z" fill="white"/>
</svg>
