<svg width="12" height="10" viewBox="0 0 12 10" fill="none" xmlns="http://www.w3.org/2000/svg">
<path d="M11.1398 5.47329L7.13984 9.47329C7.07768 9.53545 7.00389 9.58476 6.92267 9.6184C6.84146 9.65204 6.75441 9.66935 6.6665 9.66935C6.5786 9.66935 6.49155 9.65204 6.41034 9.6184C6.32912 9.58476 6.25533 9.53545 6.19317 9.47329C6.13101 9.41113 6.0817 9.33734 6.04806 9.25613C6.01442 9.17491 5.99711 9.08787 5.99711 8.99996C5.99711 8.91205 6.01442 8.82501 6.04806 8.74379C6.0817 8.66258 6.13101 8.58879 6.19317 8.52663L9.05984 5.66663H1.33317C1.15636 5.66663 0.98679 5.59639 0.861766 5.47136C0.736742 5.34634 0.666504 5.17677 0.666504 4.99996C0.666504 4.82315 0.736742 4.65358 0.861766 4.52856C0.98679 4.40353 1.15636 4.33329 1.33317 4.33329H9.05984L6.19317 1.47329C6.06764 1.34776 5.99711 1.1775 5.99711 0.999961C5.99711 0.822426 6.06764 0.652163 6.19317 0.526628C6.31871 0.401092 6.48897 0.330566 6.6665 0.330566C6.84404 0.330566 7.0143 0.401092 7.13984 0.526628L11.1398 4.52663C11.2023 4.5886 11.2519 4.66234 11.2858 4.74358C11.3196 4.82482 11.337 4.91195 11.337 4.99996C11.337 5.08797 11.3196 5.17511 11.2858 5.25635C11.2519 5.33758 11.2023 5.41132 11.1398 5.47329Z" fill="#231F20"/>
</svg>
