<svg width="1088" height="180" viewBox="0 0 1088 180" fill="none" xmlns="http://www.w3.org/2000/svg">
<g opacity="0.05">
<path d="M201.363 108.335C195.252 107.132 189.041 106.505 182.812 106.464H180.1V127.865H182.812C189.068 127.854 195.3 128.629 201.363 130.171C219.285 134.695 234.937 145.614 245.374 160.873C255.811 176.132 260.313 194.679 258.034 213.026C255.755 231.372 246.851 248.253 232.998 260.494C219.145 272.734 201.297 279.49 182.812 279.49H99.987V236.824H97.275C90.9834 236.84 84.7146 236.066 78.6162 234.518V301H182.812C206.927 300.928 230.154 291.892 247.98 275.649C265.807 259.407 276.96 237.116 279.272 213.109C281.584 189.101 274.891 165.092 260.493 145.744C246.095 126.396 225.02 113.092 201.363 108.417V108.335Z" fill="white"/>
<path d="M86.7483 0C78.3282 0.00169091 70.0977 2.50019 63.0972 7.17964C56.0967 11.8591 50.6406 18.5094 47.4186 26.2898C44.1966 34.0702 43.3534 42.6313 44.9956 50.8909C46.6378 59.1505 50.6917 66.7377 56.6447 72.6934C37.9487 81.278 22.4581 95.5742 12.4026 113.524C2.34713 131.474 -1.75474 152.152 0.687427 172.582C3.12959 193.012 11.9898 212.14 25.9929 227.213C39.9959 242.286 58.4196 252.527 78.6122 256.461C84.7452 257.627 90.9738 258.218 97.2167 258.224H99.9287V236.823H97.2167C90.9432 236.835 84.6929 236.061 78.6122 234.517C60.8781 229.809 45.4483 218.838 35.1758 203.632C24.9033 188.427 20.4829 170.015 22.7318 151.803C24.9808 133.59 33.7471 116.808 47.4097 104.559C61.0724 92.3096 78.7074 85.4224 97.054 85.1706H179.961V127.973H182.673C188.928 127.962 195.16 128.737 201.223 130.278V0.0813724L86.7483 0ZM86.7483 63.7694C81.1307 63.7694 75.7433 61.5375 71.7711 57.5647C67.7989 53.5919 65.5673 48.2037 65.5673 42.5853C65.5673 36.9669 67.7989 31.5786 71.7711 27.6058C75.7433 23.633 81.1307 21.4011 86.7483 21.4011H179.961V63.7694H86.7483Z" fill="white"/>
<path d="M39.3879 284.138L55.5469 298.167L246.823 77.786L230.664 63.7568L39.3879 284.138Z" fill="white"/>
</g>
<path opacity="0.05" d="M371.736 89.758C379.815 89.758 386.577 90.5234 392.02 92.0543C397.549 93.5002 401.674 95.9242 404.395 99.3262C407.202 102.643 408.605 107.151 408.605 112.849C408.605 116.251 408.052 119.356 406.947 122.162C405.841 124.969 404.225 127.265 402.099 129.052C400.058 130.838 397.549 131.986 394.572 132.496V133.134C397.634 133.729 400.398 134.793 402.864 136.323C405.331 137.854 407.287 140.066 408.733 142.957C410.179 145.849 410.902 149.676 410.902 154.439C410.902 159.968 409.541 164.73 406.819 168.728C404.183 172.64 400.355 175.66 395.337 177.786C390.319 179.827 384.366 180.848 377.476 180.848H343.414V89.758H371.736ZM373.904 125.862C379.518 125.862 383.388 124.969 385.514 123.183C387.725 121.397 388.831 118.803 388.831 115.401C388.831 111.914 387.555 109.405 385.004 107.874C382.452 106.343 378.412 105.577 372.884 105.577H362.678V125.862H373.904ZM362.678 141.171V164.901H375.308C381.091 164.901 385.131 163.795 387.427 161.584C389.724 159.287 390.872 156.268 390.872 152.526C390.872 150.229 390.362 148.231 389.341 146.53C388.406 144.829 386.747 143.51 384.366 142.575C381.984 141.639 378.752 141.171 374.67 141.171H362.678ZM456.303 109.915C462.767 109.915 468.295 111.148 472.888 113.615C477.566 116.081 481.18 119.653 483.732 124.331C486.283 129.009 487.559 134.75 487.559 141.554V150.74H442.652C442.822 156.098 444.396 160.308 447.373 163.37C450.434 166.432 454.644 167.962 460.003 167.962C464.51 167.962 468.593 167.537 472.25 166.687C475.907 165.751 479.692 164.348 483.604 162.477V177.148C480.202 178.849 476.588 180.082 472.76 180.848C469.018 181.698 464.468 182.123 459.11 182.123C452.135 182.123 445.969 180.848 440.611 178.296C435.253 175.66 431.043 171.705 427.981 166.432C424.919 161.158 423.388 154.524 423.388 146.53C423.388 138.365 424.749 131.603 427.471 126.245C430.277 120.802 434.147 116.719 439.08 113.998C444.013 111.276 449.754 109.915 456.303 109.915ZM456.43 123.438C452.773 123.438 449.711 124.629 447.245 127.01C444.864 129.392 443.46 133.091 443.035 138.109H469.698C469.698 135.303 469.188 132.794 468.167 130.582C467.232 128.371 465.786 126.628 463.83 125.352C461.874 124.076 459.407 123.438 456.43 123.438ZM531.55 109.787C540.906 109.787 548.05 111.829 552.983 115.911C558.001 119.909 560.51 126.075 560.51 134.41V180.848H547.242L543.542 171.407H543.032C541.076 173.873 539.035 175.915 536.908 177.531C534.867 179.147 532.486 180.295 529.764 180.975C527.127 181.741 523.853 182.123 519.941 182.123C515.858 182.123 512.158 181.358 508.842 179.827C505.61 178.211 503.058 175.787 501.187 172.555C499.316 169.238 498.38 165.071 498.38 160.053C498.38 152.653 500.974 147.21 506.162 143.723C511.351 140.151 519.133 138.195 529.509 137.854L541.629 137.472V134.41C541.629 130.753 540.651 128.073 538.694 126.372C536.823 124.671 534.187 123.821 530.785 123.821C527.383 123.821 524.066 124.331 520.834 125.352C517.602 126.287 514.37 127.478 511.138 128.924L504.887 116.039C508.629 114.083 512.754 112.552 517.262 111.446C521.854 110.34 526.617 109.787 531.55 109.787ZM534.229 148.826C528.106 148.996 523.853 150.102 521.472 152.143C519.09 154.184 517.899 156.863 517.899 160.18C517.899 163.072 518.75 165.156 520.451 166.432C522.152 167.622 524.363 168.218 527.085 168.218C531.167 168.218 534.612 167.027 537.419 164.645C540.225 162.179 541.629 158.734 541.629 154.312V148.571L534.229 148.826ZM697.763 134.41C697.763 144.616 695.807 153.164 691.895 160.053C687.983 166.942 682.284 172.13 674.8 175.617C667.4 179.104 658.47 180.848 648.009 180.848H622.238V89.758H650.815C660.341 89.758 668.591 91.459 675.565 94.861C682.624 98.2631 688.068 103.281 691.895 109.915C695.807 116.464 697.763 124.629 697.763 134.41ZM677.734 134.92C677.734 128.201 676.756 122.673 674.8 118.335C672.844 113.998 669.909 110.808 665.997 108.767C662.17 106.641 657.449 105.577 651.836 105.577H641.502V164.901H649.795C659.235 164.901 666.252 162.392 670.845 157.374C675.438 152.356 677.734 144.871 677.734 134.92ZM743.849 109.915C750.312 109.915 755.841 111.148 760.434 113.615C765.111 116.081 768.726 119.653 771.278 124.331C773.829 129.009 775.105 134.75 775.105 141.554V150.74H730.198C730.368 156.098 731.941 160.308 734.918 163.37C737.98 166.432 742.19 167.962 747.548 167.962C752.056 167.962 756.138 167.537 759.796 166.687C763.453 165.751 767.238 164.348 771.15 162.477V177.148C767.748 178.849 764.133 180.082 760.306 180.848C756.564 181.698 752.013 182.123 746.655 182.123C739.681 182.123 733.515 180.848 728.157 178.296C722.798 175.66 718.588 171.705 715.527 166.432C712.465 161.158 710.934 154.524 710.934 146.53C710.934 138.365 712.295 131.603 715.016 126.245C717.823 120.802 721.693 116.719 726.626 113.998C731.559 111.276 737.3 109.915 743.849 109.915ZM743.976 123.438C740.319 123.438 737.257 124.629 734.791 127.01C732.409 129.392 731.006 133.091 730.581 138.109H757.244C757.244 135.303 756.734 132.794 755.713 130.582C754.778 128.371 753.332 126.628 751.376 125.352C749.419 124.076 746.953 123.438 743.976 123.438ZM839.125 160.18C839.125 164.858 838.02 168.855 835.808 172.172C833.597 175.404 830.28 177.871 825.857 179.572C821.435 181.273 815.949 182.123 809.4 182.123C804.552 182.123 800.385 181.783 796.897 181.103C793.41 180.507 789.923 179.487 786.436 178.041V162.349C790.178 164.05 794.218 165.453 798.556 166.559C802.894 167.665 806.721 168.218 810.038 168.218C813.78 168.218 816.417 167.665 817.948 166.559C819.564 165.453 820.372 164.008 820.372 162.221C820.372 161.031 820.031 159.968 819.351 159.032C818.756 158.096 817.395 157.033 815.269 155.843C813.142 154.652 809.825 153.121 805.318 151.25C800.98 149.379 797.408 147.55 794.601 145.764C791.794 143.893 789.711 141.682 788.35 139.13C786.989 136.494 786.309 133.219 786.309 129.307C786.309 122.843 788.818 117.995 793.836 114.763C798.854 111.531 805.53 109.915 813.865 109.915C818.203 109.915 822.328 110.34 826.24 111.191C830.152 112.041 834.192 113.445 838.36 115.401L832.619 129.052C830.323 128.031 828.111 127.138 825.985 126.372C823.859 125.607 821.775 125.012 819.734 124.586C817.778 124.161 815.736 123.948 813.61 123.948C810.803 123.948 808.677 124.331 807.231 125.097C805.87 125.862 805.19 127.01 805.19 128.541C805.19 129.647 805.53 130.668 806.211 131.603C806.976 132.454 808.379 133.389 810.421 134.41C812.547 135.43 815.651 136.791 819.734 138.492C823.731 140.108 827.176 141.809 830.067 143.595C832.959 145.296 835.17 147.465 836.701 150.102C838.317 152.653 839.125 156.013 839.125 160.18ZM872.942 111.191V180.848H853.933V111.191H872.942ZM863.501 83.8894C866.308 83.8894 868.732 84.5699 870.773 85.9307C872.815 87.2064 873.835 89.6304 873.835 93.2025C873.835 96.6896 872.815 99.1136 870.773 100.474C868.732 101.835 866.308 102.516 863.501 102.516C860.61 102.516 858.143 101.835 856.102 100.474C854.146 99.1136 853.168 96.6896 853.168 93.2025C853.168 89.6304 854.146 87.2064 856.102 85.9307C858.143 84.5699 860.61 83.8894 863.501 83.8894ZM915.385 109.915C919.638 109.915 923.465 110.766 926.867 112.467C930.269 114.168 933.161 116.719 935.542 120.121H936.053L937.584 111.191H953.658V180.975C953.658 187.609 952.34 193.18 949.703 197.688C947.152 202.195 943.282 205.598 938.094 207.894C932.906 210.275 926.484 211.466 918.83 211.466C913.897 211.466 909.304 211.168 905.052 210.573C900.884 209.978 896.802 208.915 892.804 207.384V192.202C895.696 193.393 898.588 194.371 901.479 195.136C904.456 195.987 907.475 196.582 910.537 196.922C913.684 197.348 916.831 197.56 919.978 197.56C924.911 197.56 928.568 196.242 930.95 193.605C933.416 190.969 934.649 187.014 934.649 181.741V180.337C934.649 178.891 934.692 177.403 934.777 175.872C934.947 174.341 935.075 172.98 935.16 171.79H934.649C932.268 175.447 929.419 178.083 926.102 179.699C922.785 181.315 919.042 182.123 914.875 182.123C906.625 182.123 900.161 178.977 895.483 172.683C890.891 166.304 888.594 157.459 888.594 146.147C888.594 138.492 889.657 131.986 891.784 126.628C893.91 121.184 896.972 117.059 900.969 114.253C905.052 111.361 909.857 109.915 915.385 109.915ZM921.381 125.352C918.405 125.352 915.896 126.16 913.854 127.776C911.898 129.307 910.41 131.646 909.389 134.793C908.454 137.854 907.986 141.724 907.986 146.402C907.986 153.376 909.091 158.607 911.303 162.094C913.514 165.496 916.959 167.197 921.636 167.197C924.103 167.197 926.229 166.899 928.015 166.304C929.801 165.624 931.247 164.56 932.353 163.115C933.544 161.584 934.437 159.627 935.032 157.246C935.627 154.865 935.925 151.973 935.925 148.571V146.274C935.925 141.256 935.415 137.216 934.394 134.155C933.374 131.093 931.8 128.881 929.674 127.521C927.548 126.075 924.783 125.352 921.381 125.352ZM1013.08 109.915C1020.57 109.915 1026.57 111.956 1031.07 116.039C1035.58 120.036 1037.83 126.5 1037.83 135.43V180.848H1018.83V140.151C1018.83 135.133 1017.93 131.39 1016.15 128.924C1014.36 126.372 1011.51 125.097 1007.6 125.097C1001.82 125.097 997.861 127.095 995.735 131.093C993.608 135.005 992.545 140.661 992.545 148.06V180.848H973.536V111.191H988.08L990.632 120.121H991.652C993.183 117.74 995.054 115.826 997.265 114.38C999.477 112.849 1001.94 111.744 1004.66 111.063C1007.39 110.298 1010.19 109.915 1013.08 109.915Z" fill="white"/>
</svg>
