<svg width="21" height="20" viewBox="0 0 21 20" fill="none" xmlns="http://www.w3.org/2000/svg">
<path d="M8.07335 10.1364C10.3656 10.1364 12.2238 8.27818 12.2238 5.98593C12.2238 3.69368 10.3656 1.83545 8.07335 1.83545C5.7811 1.83545 3.92287 3.69368 3.92287 5.98593C3.92287 8.27818 5.7811 10.1364 8.07335 10.1364Z" fill="white"/>
<path d="M8.07335 12.9034C5.46258 12.9034 3.14215 14.328 1.67167 16.5359C1.34953 17.0195 1.18846 17.2614 1.207 17.5703C1.22144 17.8109 1.37913 18.1053 1.57133 18.2507C1.81818 18.4374 2.15768 18.4374 2.83669 18.4374H13.31C13.989 18.4374 14.3285 18.4374 14.5754 18.2507C14.7676 18.1053 14.9253 17.8109 14.9397 17.5703C14.9582 17.2614 14.7972 17.0195 14.475 16.5359C13.0046 14.328 10.6841 12.9034 8.07335 12.9034Z" fill="white"/>
<path d="M15.9132 13.6753C17.256 14.3499 18.4073 15.4324 19.2476 16.7861C19.414 17.0541 19.4972 17.1882 19.526 17.3738C19.5845 17.751 19.3265 18.2147 18.9752 18.3639C18.8024 18.4374 18.6079 18.4374 18.219 18.4374M14.0685 9.70499C15.4351 9.02583 16.3743 7.61556 16.3743 5.98593C16.3743 4.35631 15.4351 2.94604 14.0685 2.26688M12.2238 5.98593C12.2238 8.27818 10.3656 10.1364 8.07335 10.1364C5.7811 10.1364 3.92287 8.27818 3.92287 5.98593C3.92287 3.69368 5.7811 1.83545 8.07335 1.83545C10.3656 1.83545 12.2238 3.69368 12.2238 5.98593ZM1.67167 16.5359C3.14215 14.328 5.46258 12.9034 8.07335 12.9034C10.6841 12.9034 13.0046 14.328 14.475 16.5359C14.7972 17.0195 14.9582 17.2614 14.9397 17.5703C14.9253 17.8109 14.7676 18.1053 14.5754 18.2507C14.3285 18.4374 13.989 18.4374 13.31 18.4374H2.83669C2.15768 18.4374 1.81818 18.4374 1.57133 18.2507C1.37913 18.1053 1.22144 17.8109 1.207 17.5703C1.18846 17.2614 1.34953 17.0195 1.67167 16.5359Z" stroke="white" stroke-width="1.84466" stroke-linecap="round" stroke-linejoin="round"/>
</svg>
