<svg width="18" height="22" viewBox="0 0 18 22" fill="none" xmlns="http://www.w3.org/2000/svg">
<path d="M8.47778 19.9364C8.68198 20.0555 8.78408 20.1151 8.92817 20.146C9.03999 20.17 9.20313 20.17 9.31496 20.146C9.45904 20.1151 9.56114 20.0555 9.76534 19.9364C11.5621 18.8882 16.5002 15.5955 16.5002 11.0683V6.65735C16.5002 5.91993 16.5002 5.55123 16.3796 5.23429C16.2731 4.9543 16.0999 4.70448 15.8752 4.50641C15.6208 4.2822 15.2755 4.15274 14.5851 3.89381L9.63972 2.03931C9.44798 1.9674 9.3521 1.93145 9.25347 1.9172C9.16598 1.90455 9.07714 1.90455 8.98965 1.9172C8.89102 1.93145 8.79515 1.9674 8.6034 2.03931L3.65805 3.89381C2.96759 4.15274 2.62236 4.2822 2.36794 4.50641C2.1432 4.70448 1.97007 4.9543 1.86352 5.23429C1.74292 5.55123 1.74292 5.91993 1.74292 6.65735V11.0683C1.74292 15.5955 6.68104 18.8882 8.47778 19.9364Z" fill="white"/>
<path d="M6.35457 10.6071L8.19923 12.4518L12.3497 8.30131M16.5002 11.0683C16.5002 15.5955 11.5621 18.8882 9.76534 19.9364C9.56114 20.0555 9.45904 20.1151 9.31496 20.146C9.20313 20.17 9.03999 20.17 8.92817 20.146C8.78408 20.1151 8.68198 20.0555 8.47778 19.9364C6.68104 18.8882 1.74292 15.5955 1.74292 11.0683V6.65735C1.74292 5.91993 1.74292 5.55123 1.86352 5.23429C1.97007 4.9543 2.1432 4.70448 2.36794 4.50641C2.62236 4.2822 2.96759 4.15274 3.65805 3.89381L8.6034 2.03931C8.79515 1.9674 8.89102 1.93145 8.98965 1.9172C9.07714 1.90455 9.16598 1.90455 9.25347 1.9172C9.3521 1.93145 9.44797 1.9674 9.63972 2.03931L14.5851 3.89381C15.2755 4.15274 15.6208 4.2822 15.8752 4.50641C16.0999 4.70448 16.2731 4.9543 16.3796 5.23429C16.5002 5.55123 16.5002 5.91993 16.5002 6.65735V11.0683Z" stroke="white" stroke-width="1.84466" stroke-linecap="round" stroke-linejoin="round"/>
</svg>
