<svg width="60" height="60" viewBox="0 0 60 60" fill="none" xmlns="http://www.w3.org/2000/svg">
<g clip-path="url(#clip0_1_1253)">
<path fill-rule="evenodd" clip-rule="evenodd" d="M1.81533 6.69475C0.416992 9.38666 0.416992 12.9232 0.416992 19.9963V39.6201C0.416992 46.6932 0.416992 50.2298 1.81533 52.9217C2.99369 55.1901 4.84329 57.0397 7.11174 58.2181C9.80365 59.6164 13.3402 59.6164 20.4133 59.6164H40.0371C47.1102 59.6164 50.6468 59.6164 53.3387 58.2181C55.6071 57.0397 57.4567 55.1901 58.6351 52.9217C60.0334 50.2298 60.0334 46.6932 60.0334 39.6201V19.9963C60.0334 12.9232 60.0334 9.38666 58.6351 6.69475C57.4567 4.4263 55.6071 2.5767 53.3387 1.39834C50.6468 0 47.1102 0 40.0371 0H20.4133C13.3402 0 9.80365 0 7.11174 1.39834C4.84329 2.5767 2.99369 4.4263 1.81533 6.69475ZM21.2532 8.25983C23.565 8.15462 24.3041 8.12886 30.1884 8.12885C36.0744 8.12886 36.8108 8.15462 39.1226 8.25983C41.4305 8.36551 43.0066 8.73089 44.3886 9.26698C45.8157 9.82024 47.0216 10.5609 48.2274 11.7668C49.4333 12.9718 50.1739 14.1813 50.7294 15.6071C51.2623 16.9855 51.6282 18.5608 51.7366 20.8687C51.8404 23.1811 51.8675 23.92 51.8675 29.8076C51.8675 35.6951 51.8404 36.4322 51.7366 38.7446C51.6282 41.0516 51.2623 42.6273 50.7294 44.0062C50.1739 45.4316 49.4333 46.6411 48.2274 47.846C47.0229 49.0519 45.8153 49.7944 44.39 50.3481C43.0107 50.8842 41.4336 51.2496 39.1258 51.3553C36.8135 51.4605 36.0769 51.4863 30.189 51.4863C24.3021 51.4863 23.5637 51.4605 21.2514 51.3553C18.944 51.2496 17.3683 50.8842 15.989 50.3481C14.5641 49.7944 13.3547 49.0519 12.1502 47.846C10.9448 46.6411 10.2041 45.4316 9.64998 44.0057C9.11435 42.6273 8.74899 41.052 8.64286 38.7442C8.53808 36.4318 8.51188 35.6951 8.51188 29.8076C8.51188 23.92 8.53898 23.1806 8.6424 20.8683C8.74628 18.5613 9.11209 16.9855 9.64953 15.6067C10.205 14.1813 10.9457 12.9718 12.1515 11.7668C13.3565 10.5614 14.5659 9.82069 15.9917 9.26698C17.3701 8.73089 18.9453 8.36551 21.2532 8.25983ZM30.1884 8.12885C30.1895 8.12885 30.1906 8.12885 30.1917 8.12885H30.185C30.1861 8.12885 30.1872 8.12885 30.1884 8.12885ZM29.4692 12.0353C29.0309 12.0351 28.6246 12.0349 28.247 12.0355V12.0301C24.2068 12.0346 23.4318 12.0617 21.432 12.1521C19.3184 12.2492 18.1708 12.6014 17.4067 12.8995C16.395 13.2934 15.6724 13.7631 14.9137 14.5218C14.155 15.2806 13.6844 16.0032 13.2914 17.0149C12.9947 17.779 12.6416 18.9262 12.5449 21.0399C12.441 23.3252 12.4203 24.0081 12.4203 29.7972C12.4203 35.5863 12.441 36.2728 12.5449 38.5581C12.6411 40.6717 12.9947 41.8189 13.2914 42.5822C13.6853 43.5943 14.155 44.3151 14.9137 45.0739C15.6724 45.8326 16.395 46.3023 17.4067 46.6953C18.1713 46.992 19.3184 47.3452 21.432 47.4427C23.7172 47.5466 24.4032 47.5692 30.1917 47.5692C35.9798 47.5692 36.6662 47.5466 38.9515 47.4427C41.0651 47.3461 42.2131 46.9938 42.9764 46.6957C43.9885 46.3028 44.7088 45.8331 45.4675 45.0743C46.2263 44.316 46.6969 43.5957 47.0898 42.584C47.3865 41.8207 47.7397 40.6736 47.8363 38.5599C47.9402 36.2746 47.9628 35.5881 47.9628 29.8026C47.9628 24.0171 47.9402 23.3306 47.8363 21.0453C47.7401 18.9316 47.3865 17.7845 47.0898 17.0212C46.696 16.0095 46.2263 15.2869 45.4675 14.5281C44.7093 13.7694 43.988 13.2997 42.9764 12.9067C42.2122 12.61 41.0651 12.2568 38.9515 12.1602C36.6658 12.0563 35.9798 12.0355 30.1917 12.0355C29.9416 12.0355 29.7009 12.0354 29.4692 12.0353ZM39.1619 18.2356C39.1619 16.799 40.3271 15.6351 41.7633 15.6351V15.6342C43.1995 15.6342 44.3647 16.7994 44.3647 18.2356C44.3647 19.6719 43.1995 20.8371 41.7633 20.8371C40.3271 20.8371 39.1619 19.6719 39.1619 18.2356ZM19.0592 29.8076C19.0592 23.6595 24.0435 18.6749 30.1913 18.6746C36.3393 18.6746 41.3225 23.6594 41.3225 29.8076C41.3225 35.9557 36.3397 40.9382 30.1917 40.9382C24.0438 40.9382 19.0592 35.9557 19.0592 29.8076ZM37.4178 29.8076C37.4178 25.8164 34.1823 22.5813 30.1917 22.5813C26.2007 22.5813 22.9657 25.8164 22.9657 29.8076C22.9657 33.7982 26.2007 37.0338 30.1917 37.0338C34.1823 37.0338 37.4178 33.7982 37.4178 29.8076Z" fill="url(#paint0_radial_1_1253)"/>
<path fill-rule="evenodd" clip-rule="evenodd" d="M1.81533 6.69475C0.416992 9.38666 0.416992 12.9232 0.416992 19.9963V39.6201C0.416992 46.6932 0.416992 50.2298 1.81533 52.9217C2.99369 55.1901 4.84329 57.0397 7.11174 58.2181C9.80365 59.6164 13.3402 59.6164 20.4133 59.6164H40.0371C47.1102 59.6164 50.6468 59.6164 53.3387 58.2181C55.6071 57.0397 57.4567 55.1901 58.6351 52.9217C60.0334 50.2298 60.0334 46.6932 60.0334 39.6201V19.9963C60.0334 12.9232 60.0334 9.38666 58.6351 6.69475C57.4567 4.4263 55.6071 2.5767 53.3387 1.39834C50.6468 0 47.1102 0 40.0371 0H20.4133C13.3402 0 9.80365 0 7.11174 1.39834C4.84329 2.5767 2.99369 4.4263 1.81533 6.69475ZM21.2532 8.25983C23.565 8.15462 24.3041 8.12886 30.1884 8.12885C36.0744 8.12886 36.8108 8.15462 39.1226 8.25983C41.4305 8.36551 43.0066 8.73089 44.3886 9.26698C45.8157 9.82024 47.0216 10.5609 48.2274 11.7668C49.4333 12.9718 50.1739 14.1813 50.7294 15.6071C51.2623 16.9855 51.6282 18.5608 51.7366 20.8687C51.8404 23.1811 51.8675 23.92 51.8675 29.8076C51.8675 35.6951 51.8404 36.4322 51.7366 38.7446C51.6282 41.0516 51.2623 42.6273 50.7294 44.0062C50.1739 45.4316 49.4333 46.6411 48.2274 47.846C47.0229 49.0519 45.8153 49.7944 44.39 50.3481C43.0107 50.8842 41.4336 51.2496 39.1258 51.3553C36.8135 51.4605 36.0769 51.4863 30.189 51.4863C24.3021 51.4863 23.5637 51.4605 21.2514 51.3553C18.944 51.2496 17.3683 50.8842 15.989 50.3481C14.5641 49.7944 13.3547 49.0519 12.1502 47.846C10.9448 46.6411 10.2041 45.4316 9.64998 44.0057C9.11435 42.6273 8.74899 41.052 8.64286 38.7442C8.53808 36.4318 8.51188 35.6951 8.51188 29.8076C8.51188 23.92 8.53898 23.1806 8.6424 20.8683C8.74628 18.5613 9.11209 16.9855 9.64953 15.6067C10.205 14.1813 10.9457 12.9718 12.1515 11.7668C13.3565 10.5614 14.5659 9.82069 15.9917 9.26698C17.3701 8.73089 18.9453 8.36551 21.2532 8.25983ZM30.1884 8.12885C30.1895 8.12885 30.1906 8.12885 30.1917 8.12885H30.185C30.1861 8.12885 30.1872 8.12885 30.1884 8.12885ZM29.4692 12.0353C29.0309 12.0351 28.6246 12.0349 28.247 12.0355V12.0301C24.2068 12.0346 23.4318 12.0617 21.432 12.1521C19.3184 12.2492 18.1708 12.6014 17.4067 12.8995C16.395 13.2934 15.6724 13.7631 14.9137 14.5218C14.155 15.2806 13.6844 16.0032 13.2914 17.0149C12.9947 17.779 12.6416 18.9262 12.5449 21.0399C12.441 23.3252 12.4203 24.0081 12.4203 29.7972C12.4203 35.5863 12.441 36.2728 12.5449 38.5581C12.6411 40.6717 12.9947 41.8189 13.2914 42.5822C13.6853 43.5943 14.155 44.3151 14.9137 45.0739C15.6724 45.8326 16.395 46.3023 17.4067 46.6953C18.1713 46.992 19.3184 47.3452 21.432 47.4427C23.7172 47.5466 24.4032 47.5692 30.1917 47.5692C35.9798 47.5692 36.6662 47.5466 38.9515 47.4427C41.0651 47.3461 42.2131 46.9938 42.9764 46.6957C43.9885 46.3028 44.7088 45.8331 45.4675 45.0743C46.2263 44.316 46.6969 43.5957 47.0898 42.584C47.3865 41.8207 47.7397 40.6736 47.8363 38.5599C47.9402 36.2746 47.9628 35.5881 47.9628 29.8026C47.9628 24.0171 47.9402 23.3306 47.8363 21.0453C47.7401 18.9316 47.3865 17.7845 47.0898 17.0212C46.696 16.0095 46.2263 15.2869 45.4675 14.5281C44.7093 13.7694 43.988 13.2997 42.9764 12.9067C42.2122 12.61 41.0651 12.2568 38.9515 12.1602C36.6658 12.0563 35.9798 12.0355 30.1917 12.0355C29.9416 12.0355 29.7009 12.0354 29.4692 12.0353ZM39.1619 18.2356C39.1619 16.799 40.3271 15.6351 41.7633 15.6351V15.6342C43.1995 15.6342 44.3647 16.7994 44.3647 18.2356C44.3647 19.6719 43.1995 20.8371 41.7633 20.8371C40.3271 20.8371 39.1619 19.6719 39.1619 18.2356ZM19.0592 29.8076C19.0592 23.6595 24.0435 18.6749 30.1913 18.6746C36.3393 18.6746 41.3225 23.6594 41.3225 29.8076C41.3225 35.9557 36.3397 40.9382 30.1917 40.9382C24.0438 40.9382 19.0592 35.9557 19.0592 29.8076ZM37.4178 29.8076C37.4178 25.8164 34.1823 22.5813 30.1917 22.5813C26.2007 22.5813 22.9657 25.8164 22.9657 29.8076C22.9657 33.7982 26.2007 37.0338 30.1917 37.0338C34.1823 37.0338 37.4178 33.7982 37.4178 29.8076Z" fill="white"/>
</g>
<defs>
<radialGradient id="paint0_radial_1_1253" cx="0" cy="0" r="1" gradientUnits="userSpaceOnUse" gradientTransform="translate(16.2527 64.2082) rotate(-90) scale(59.0843 54.953)">
<stop stop-color="#FFDD55"/>
<stop offset="0.1" stop-color="#FFDD55"/>
<stop offset="0.5" stop-color="#FF543E"/>
<stop offset="1" stop-color="#C837AB"/>
</radialGradient>
<clipPath id="clip0_1_1253">
<rect width="59.6164" height="59.6164" fill="white" transform="translate(0.383789)"/>
</clipPath>
</defs>
</svg>
