<svg width="554" height="346" viewBox="0 0 554 346" fill="none" xmlns="http://www.w3.org/2000/svg">
<path fill-rule="evenodd" clip-rule="evenodd" d="M244.441 0.458604C243.599 0.719632 240.843 1.54537 238.317 2.29227C187.582 17.3091 119.814 84.4358 73.7914 165.261C34.4321 234.385 -0.532149 317.766 0.00613465 341.221C0.128917 346.563 1.36195 346.649 5.26098 341.586C8.76411 337.036 8.53202 336.4 4.60175 339.78C0.68802 343.147 0.541968 342.49 3.00987 332.622C13.3065 291.446 64.3766 190.748 99.384 142.593C156.401 64.1648 212.8 20.8355 258.679 20.2101C276.231 19.971 280.725 23.1602 280.725 35.8576C280.725 53.0763 262.994 101.152 251.483 115.143C216.641 157.493 171.388 230.706 166.388 252.816C164.723 260.179 165.545 270.001 167.825 270.001C172.314 270.001 207.309 214.948 235.715 163.2C245.608 145.178 246.972 143.471 275.519 113.41C318.832 67.8012 341.196 52.7804 369.214 50.4816C380.74 49.537 381.894 50.5772 380.233 60.4226C376.885 80.2659 351.978 131.138 309.047 205.816C301.463 219.009 299.585 228.071 302.173 238.991L303.107 242.933L306.383 242.256C308.863 241.744 311.659 239.666 317.88 233.717C339.014 213.501 379.057 180.088 398.455 166.481C431.445 143.339 467.579 127.184 518.635 112.746C526.246 110.594 532.233 108.166 536.394 105.546C539.846 103.372 545.22 100.574 548.335 99.33L554 97.066L550.173 96.1239C548.068 95.6058 543.589 93.6105 540.221 91.6903C525.04 83.0363 500.324 88.5839 446.221 112.788C411.349 128.389 369.683 158.512 331.763 195.534C329.268 197.97 326.995 199.943 326.711 199.92C326.427 199.895 329.501 193.893 333.543 186.579C379.569 103.293 390.027 74.226 385.663 41.7113C383.905 28.6159 380.917 25.5637 369.826 25.5418C343.099 25.4875 315.223 43.753 277.219 86.2204C271.695 92.3933 271.711 92.4243 275.247 82.2029C288.522 43.8318 287.888 13.5591 273.583 2.69798C271.189 0.881122 248.661 -0.851703 244.441 0.458604Z" fill="#FFCE00"/>
</svg>
