<svg width="60" height="60" viewBox="0 0 60 60" fill="none" xmlns="http://www.w3.org/2000/svg">
<path fill-rule="evenodd" clip-rule="evenodd" d="M1.70864 6.69475C0.310303 9.38666 0.310303 12.9232 0.310303 19.9963V39.6201C0.310303 46.6932 0.310303 50.2298 1.70864 52.9217C2.887 55.1901 4.7366 57.0397 7.00505 58.2181C9.69696 59.6164 13.2335 59.6164 20.3067 59.6164H39.9304C47.0035 59.6164 50.5401 59.6164 53.232 58.2181C55.5004 57.0397 57.35 55.1901 58.5284 52.9217C59.9267 50.2298 59.9267 46.6932 59.9267 39.6201V19.9963C59.9267 12.9232 59.9267 9.38666 58.5284 6.69475C57.35 4.4263 55.5004 2.5767 53.232 1.39834C50.5401 0 47.0035 0 39.9304 0H20.3067C13.2335 0 9.69696 0 7.00505 1.39834C4.7366 2.5767 2.887 4.4263 1.70864 6.69475ZM13.6909 18.5135C16.5471 18.5135 18.8626 16.1981 18.8626 13.3418C18.8626 10.4855 16.5471 8.17009 13.6909 8.17009C10.8346 8.17009 8.51916 10.4855 8.51916 13.3418C8.51916 16.1981 10.8346 18.5135 13.6909 18.5135ZM23.599 22.3356H32.1702V26.2621C32.1702 26.2621 34.4961 21.6103 40.8246 21.6103C46.4698 21.6103 51.1463 24.3913 51.1463 32.8679V50.7429H42.2641V35.0339C42.2641 30.0335 39.5945 29.4835 37.5602 29.4835C33.3384 29.4835 32.6156 33.1251 32.6156 35.6862V50.7429H23.599V22.3356ZM18.1992 22.3356H9.18257V50.7429H18.1992V22.3356Z" fill="white"/>
</svg>
