<svg width="35" height="34" viewBox="0 0 35 34" fill="none" xmlns="http://www.w3.org/2000/svg">
<path d="M13.5714 23.8896V14.7052H10.5214V23.8896H13.5717H13.5714ZM12.047 13.4515C13.1104 13.4515 13.7725 12.7462 13.7725 11.8648C13.7526 10.9634 13.1104 10.2778 12.0673 10.2778C11.0234 10.2778 10.3416 10.9634 10.3416 11.8648C10.3416 12.7461 11.0034 13.4514 12.0271 13.4514H12.0468L12.047 13.4515ZM15.2597 23.8896H18.3095V18.7612C18.3095 18.487 18.3294 18.2122 18.4099 18.0164C18.6303 17.4677 19.1322 16.8998 19.9749 16.8998C21.0783 16.8998 21.5199 17.742 21.5199 18.9767V23.8896H24.5696V18.6236C24.5696 15.8026 23.0652 14.4899 21.0585 14.4899C19.4134 14.4899 18.6908 15.4102 18.2894 16.0371H18.3097V14.7055H15.2598C15.2996 15.5671 15.2596 23.8899 15.2596 23.8899L15.2597 23.8896Z" fill="white"/>
</svg>
