<svg width="89" height="34" viewBox="0 0 89 34" fill="none" xmlns="http://www.w3.org/2000/svg">
<path d="M20.5559 12.0572C19.932 11.9344 19.298 11.8704 18.6622 11.8662H18.3853V14.0506H18.6622C19.3008 14.0495 19.937 14.1286 20.5559 14.2859C22.3855 14.7478 23.9833 15.8622 25.0487 17.4197C26.1142 18.9771 26.5738 20.8702 26.3411 22.7428C26.1084 24.6154 25.1995 26.3385 23.7853 27.5879C22.3711 28.8372 20.5492 29.5268 18.6622 29.5268H10.207V25.1719H9.93016C9.28788 25.1736 8.64794 25.0945 8.02539 24.9366V31.7223H18.6622C21.1239 31.7149 23.495 30.7927 25.3148 29.1348C27.1346 27.4769 28.2731 25.2017 28.5092 22.7513C28.7452 20.3009 28.062 17.8503 26.5922 15.8755C25.1223 13.9007 22.9709 12.5428 20.5559 12.0655V12.0572Z" fill="white"/>
<path d="M8.85562 1C7.99607 1.00017 7.15586 1.25519 6.44122 1.73282C5.72658 2.21044 5.1696 2.88923 4.84068 3.68336C4.51177 4.4775 4.42569 5.35133 4.59334 6.19437C4.76098 7.03742 5.17482 7.81184 5.78253 8.41972C3.87396 9.29595 2.29262 10.7551 1.26611 12.5873C0.239605 14.4194 -0.179131 16.53 0.0701754 18.6152C0.319481 20.7004 1.22397 22.6528 2.65346 24.1913C4.08295 25.7298 5.96372 26.7751 8.02506 27.1767C8.65114 27.2957 9.28698 27.356 9.92428 27.3566H10.2011V25.1722H9.92428C9.28386 25.1735 8.64581 25.0944 8.02506 24.9369C6.21469 24.4563 4.63955 23.3365 3.59089 21.7845C2.54223 20.2325 2.09098 18.3533 2.32056 16.4943C2.55014 14.6354 3.44504 12.9224 4.83978 11.6722C6.23452 10.4219 8.03477 9.71896 9.90767 9.69326H18.3711V14.062H18.648C19.2866 14.061 19.9228 14.14 20.5417 14.2974V1.00831L8.85562 1ZM8.85562 7.50887C8.28216 7.50887 7.73219 7.28106 7.32669 6.87556C6.92119 6.47006 6.69338 5.92009 6.69338 5.34663C6.69338 4.77317 6.92119 4.22319 7.32669 3.81769C7.73219 3.4122 8.28216 3.18439 8.85562 3.18439H18.3711V7.50887H8.85562Z" fill="white"/>
<path d="M4.02034 30.0017L5.66992 31.4336L25.1962 8.93952L23.5466 7.50758L4.02034 30.0017Z" fill="white"/>
<path d="M38.0632 1.70159C38.888 1.70159 39.5782 1.77973 40.1338 1.936C40.6982 2.0836 41.1192 2.33103 41.3971 2.67831C41.6836 3.01691 41.8268 3.47705 41.8268 4.05875C41.8268 4.40603 41.7704 4.72292 41.6575 5.00943C41.5446 5.29593 41.3797 5.53035 41.1626 5.71267C40.9543 5.89499 40.6982 6.0122 40.3943 6.06429V6.1294C40.7068 6.19018 40.989 6.2987 41.2408 6.45498C41.4926 6.61125 41.6922 6.83699 41.8398 7.13217C41.9874 7.42736 42.0612 7.81805 42.0612 8.30424C42.0612 8.86857 41.9223 9.35476 41.6445 9.76282C41.3754 10.1622 40.9847 10.4704 40.4724 10.6874C39.9602 10.8958 39.3524 11 38.6492 11H35.1721V1.70159H38.0632ZM38.2846 5.38709C38.8576 5.38709 39.2526 5.29593 39.4697 5.11361C39.6954 4.93129 39.8083 4.66649 39.8083 4.31921C39.8083 3.96325 39.678 3.70713 39.4176 3.55085C39.1571 3.39458 38.7447 3.31644 38.1804 3.31644H37.1385V5.38709H38.2846ZM37.1385 6.94985V9.37213H38.4278C39.0182 9.37213 39.4306 9.25926 39.665 9.03353C39.8994 8.79912 40.0166 8.4909 40.0166 8.1089C40.0166 7.87448 39.9645 7.67046 39.8603 7.49682C39.7648 7.32318 39.5955 7.18861 39.3524 7.0931C39.1094 6.9976 38.7794 6.94985 38.3627 6.94985H37.1385ZM46.6958 3.75922C47.3556 3.75922 47.9199 3.88511 48.3888 4.13689C48.8663 4.38866 49.2353 4.75331 49.4957 5.23082C49.7562 5.70833 49.8864 6.29436 49.8864 6.98892V7.92658H45.3023C45.3197 8.47354 45.4803 8.9033 45.7842 9.21585C46.0967 9.5284 46.5265 9.68468 47.0735 9.68468C47.5336 9.68468 47.9503 9.64127 48.3237 9.55445C48.697 9.45895 49.0833 9.31569 49.4827 9.12469V10.6223C49.1354 10.796 48.7664 10.9219 48.3757 11C47.9937 11.0868 47.5293 11.1302 46.9823 11.1302C46.2704 11.1302 45.6409 11 45.094 10.7395C44.547 10.4704 44.1172 10.0667 43.8047 9.5284C43.4921 8.99012 43.3359 8.31292 43.3359 7.49682C43.3359 6.66335 43.4748 5.97313 43.7526 5.42616C44.0391 4.87051 44.4341 4.45378 44.9377 4.17595C45.4412 3.89813 46.0273 3.75922 46.6958 3.75922ZM46.7088 5.13966C46.3355 5.13966 46.0229 5.2612 45.7712 5.5043C45.5281 5.7474 45.3848 6.12506 45.3414 6.6373H48.0632C48.0632 6.35079 48.0111 6.09468 47.9069 5.86894C47.8114 5.64321 47.6638 5.46523 47.4641 5.335C47.2645 5.20477 47.0127 5.13966 46.7088 5.13966ZM54.377 3.7462C55.332 3.7462 56.0613 3.95456 56.5649 4.3713C57.0771 4.77935 57.3332 5.4088 57.3332 6.25963V11H55.9788L55.6012 10.0363H55.5491C55.3494 10.2881 55.141 10.4964 54.924 10.6614C54.7156 10.8264 54.4725 10.9436 54.1947 11.013C53.9255 11.0912 53.5913 11.1302 53.1919 11.1302C52.7752 11.1302 52.3975 11.0521 52.0589 10.8958C51.729 10.7309 51.4685 10.4834 51.2775 10.1535C51.0865 9.81491 50.991 9.38949 50.991 8.87725C50.991 8.12192 51.2558 7.56627 51.7854 7.21031C52.315 6.84567 53.1094 6.64598 54.1686 6.61125L55.4058 6.57218V6.25963C55.4058 5.88631 55.306 5.61282 55.1063 5.43919C54.9153 5.26555 54.6461 5.17873 54.2989 5.17873C53.9516 5.17873 53.613 5.23082 53.2831 5.335C52.9532 5.4305 52.6232 5.55205 52.2933 5.69964L51.6552 4.38432C52.0372 4.18464 52.4583 4.02836 52.9184 3.9155C53.3873 3.80263 53.8734 3.7462 54.377 3.7462ZM54.6505 7.73123C54.0254 7.74859 53.5913 7.86146 53.3482 8.06983C53.1051 8.2782 52.9835 8.55168 52.9835 8.89028C52.9835 9.18546 53.0704 9.39817 53.244 9.5284C53.4176 9.64995 53.6434 9.71072 53.9212 9.71072C54.3379 9.71072 54.6896 9.58918 54.9761 9.34608C55.2626 9.0943 55.4058 8.74268 55.4058 8.29122V7.70518L54.6505 7.73123ZM42.8817 24.2596C42.8817 25.3015 42.682 26.174 42.2826 26.8773C41.8832 27.5805 41.3016 28.1101 40.5375 28.4661C39.7822 28.822 38.8706 29 37.8027 29H35.1721V19.7016H38.0892C39.0616 19.7016 39.9038 19.8752 40.6157 20.2225C41.3363 20.5698 41.8919 21.082 42.2826 21.7592C42.682 22.4277 42.8817 23.2612 42.8817 24.2596ZM40.8371 24.3117C40.8371 23.6258 40.7372 23.0615 40.5375 22.6187C40.3379 22.176 40.0383 21.8504 39.639 21.642C39.2483 21.425 38.7664 21.3164 38.1934 21.3164H37.1385V27.3721H37.985C38.9487 27.3721 39.665 27.116 40.1338 26.6038C40.6027 26.0915 40.8371 25.3275 40.8371 24.3117ZM47.586 21.7592C48.2459 21.7592 48.8102 21.8851 49.279 22.1369C49.7565 22.3887 50.1255 22.7533 50.386 23.2308C50.6464 23.7083 50.7767 24.2944 50.7767 24.9889V25.9266H46.1926C46.2099 26.4735 46.3705 26.9033 46.6744 27.2159C46.987 27.5284 47.4167 27.6847 47.9637 27.6847C48.4238 27.6847 48.8406 27.6413 49.2139 27.5544C49.5872 27.4589 49.9736 27.3157 50.3729 27.1247V28.6223C50.0257 28.796 49.6567 28.9219 49.266 29C48.884 29.0868 48.4195 29.1302 47.8725 29.1302C47.1606 29.1302 46.5312 29 45.9842 28.7395C45.4372 28.4704 45.0075 28.0667 44.6949 27.5284C44.3824 26.9901 44.2261 26.3129 44.2261 25.4968C44.2261 24.6633 44.365 23.9731 44.6428 23.4262C44.9293 22.8705 45.3244 22.4538 45.8279 22.176C46.3315 21.8981 46.9175 21.7592 47.586 21.7592ZM47.599 23.1397C47.2257 23.1397 46.9132 23.2612 46.6614 23.5043C46.4183 23.7474 46.275 24.1251 46.2316 24.6373H48.9534C48.9534 24.3508 48.9013 24.0947 48.7972 23.8689C48.7017 23.6432 48.5541 23.4652 48.3544 23.335C48.1547 23.2048 47.9029 23.1397 47.599 23.1397ZM57.3119 26.8903C57.3119 27.3678 57.199 27.7758 56.9733 28.1144C56.7475 28.4444 56.4089 28.6961 55.9575 28.8698C55.506 29.0434 54.946 29.1302 54.2775 29.1302C53.7826 29.1302 53.3572 29.0955 53.0012 29.026C52.6453 28.9653 52.2893 28.8611 51.9334 28.7135V27.1117C52.3154 27.2853 52.7278 27.4286 53.1705 27.5414C53.6133 27.6543 54.004 27.7107 54.3426 27.7107C54.7246 27.7107 54.9938 27.6543 55.15 27.5414C55.315 27.4286 55.3975 27.281 55.3975 27.0986C55.3975 26.9771 55.3627 26.8686 55.2933 26.7731C55.2325 26.6776 55.0936 26.569 54.8766 26.4475C54.6595 26.3259 54.3209 26.1697 53.8608 25.9787C53.418 25.7877 53.0533 25.601 52.7668 25.4187C52.4803 25.2277 52.2676 25.0019 52.1287 24.7415C51.9898 24.4723 51.9203 24.1381 51.9203 23.7387C51.9203 23.0789 52.1765 22.584 52.6887 22.2541C53.2009 21.9242 53.8825 21.7592 54.7333 21.7592C55.1761 21.7592 55.5972 21.8026 55.9965 21.8894C56.3959 21.9763 56.8083 22.1195 57.2337 22.3192L56.6477 23.7127C56.4133 23.6085 56.1875 23.5173 55.9705 23.4392C55.7534 23.361 55.5407 23.3003 55.3324 23.2569C55.1327 23.2135 54.9243 23.1917 54.7073 23.1917C54.4208 23.1917 54.2037 23.2308 54.0561 23.309C53.9172 23.3871 53.8477 23.5043 53.8477 23.6606C53.8477 23.7734 53.8825 23.8776 53.9519 23.9731C54.0301 24.0599 54.1733 24.1554 54.3817 24.2596C54.5987 24.3638 54.9156 24.5027 55.3324 24.6764C55.7404 24.8413 56.092 25.015 56.3872 25.1973C56.6824 25.3709 56.9081 25.5923 57.0644 25.8615C57.2294 26.1219 57.3119 26.4649 57.3119 26.8903ZM60.7639 21.8894V29H58.8234V21.8894H60.7639ZM59.8002 19.1025C60.0867 19.1025 60.3341 19.172 60.5425 19.3109C60.7508 19.4411 60.855 19.6886 60.855 20.0532C60.855 20.4092 60.7508 20.6566 60.5425 20.7955C60.3341 20.9344 60.0867 21.0039 59.8002 21.0039C59.505 21.0039 59.2532 20.9344 59.0448 20.7955C58.8451 20.6566 58.7453 20.4092 58.7453 20.0532C58.7453 19.6886 58.8451 19.4411 59.0448 19.3109C59.2532 19.172 59.505 19.1025 59.8002 19.1025ZM65.0964 21.7592C65.5305 21.7592 65.9212 21.846 66.2685 22.0197C66.6158 22.1933 66.911 22.4538 67.1541 22.8011H67.2062L67.3624 21.8894H69.0033V29.013C69.0033 29.6902 68.8688 30.2589 68.5996 30.719C68.3392 31.1792 67.9441 31.5265 67.4145 31.7609C66.8849 32.004 66.2294 32.1255 65.4481 32.1255C64.9445 32.1255 64.4757 32.0951 64.0416 32.0344C63.6162 31.9736 63.1994 31.8651 62.7914 31.7088V30.159C63.0866 30.2806 63.3818 30.3804 63.6769 30.4586C63.9808 30.5454 64.289 30.6062 64.6016 30.6409C64.9228 30.6843 65.244 30.706 65.5653 30.706C66.0688 30.706 66.4422 30.5714 66.6853 30.3023C66.937 30.0332 67.0629 29.6294 67.0629 29.0912V28.9479C67.0629 28.8003 67.0673 28.6484 67.0759 28.4921C67.0933 28.3358 67.1063 28.1969 67.115 28.0754H67.0629C66.8198 28.4487 66.529 28.7178 66.1904 28.8828C65.8518 29.0478 65.4698 29.1302 65.0444 29.1302C64.2022 29.1302 63.5424 28.809 63.0649 28.1665C62.596 27.5154 62.3616 26.6125 62.3616 25.4577C62.3616 24.6764 62.4701 24.0122 62.6872 23.4652C62.9042 22.9096 63.2168 22.4885 63.6248 22.202C64.0416 21.9068 64.5321 21.7592 65.0964 21.7592ZM65.7085 23.335C65.4047 23.335 65.1485 23.4175 64.9402 23.5824C64.7405 23.7387 64.5886 23.9775 64.4844 24.2987C64.3889 24.6113 64.3411 25.0063 64.3411 25.4838C64.3411 26.1957 64.454 26.7297 64.6797 27.0856C64.9054 27.4329 65.2571 27.6065 65.7346 27.6065C65.9864 27.6065 66.2034 27.5762 66.3857 27.5154C66.568 27.4459 66.7156 27.3374 66.8285 27.1898C66.9501 27.0335 67.0412 26.8338 67.102 26.5907C67.1628 26.3477 67.1931 26.0525 67.1931 25.7052V25.4708C67.1931 24.9585 67.1411 24.5461 67.0369 24.2336C66.9327 23.921 66.7721 23.6953 66.555 23.5564C66.338 23.4088 66.0558 23.335 65.7085 23.335ZM75.0696 21.7592C75.8336 21.7592 76.4457 21.9676 76.9059 22.3843C77.366 22.7924 77.5961 23.4522 77.5961 24.3638V29H75.6556V24.8457C75.6556 24.3334 75.5645 23.9514 75.3822 23.6996C75.1998 23.4392 74.909 23.309 74.5096 23.309C73.9192 23.309 73.5155 23.513 73.2985 23.921C73.0814 24.3204 72.9729 24.8978 72.9729 25.6531V29H71.0325V21.8894H72.5171L72.7776 22.8011H72.8818C73.038 22.558 73.229 22.3626 73.4548 22.215C73.6805 22.0587 73.9323 21.9459 74.2101 21.8764C74.4879 21.7983 74.7744 21.7592 75.0696 21.7592Z" fill="white"/>
</svg>
