<svg width="558" height="352" viewBox="0 0 558 352" fill="none" xmlns="http://www.w3.org/2000/svg">
<g filter="url(#filter0_b_1_1997)">
<rect x="-3" y="-3" width="562" height="360" rx="8.39105" fill="url(#paint0_linear_1_1997)"/>
<rect x="-2.73778" y="-2.73778" width="561.476" height="359.476" rx="8.12883" stroke="url(#paint1_radial_1_1997)" stroke-width="0.52444"/>
<rect x="-2.73778" y="-2.73778" width="561.476" height="359.476" rx="8.12883" stroke="url(#paint2_radial_1_1997)" stroke-width="0.52444"/>
</g>
<path d="M17.2389 254.454C68.7761 195.49 234.499 83.9975 485.091 109.743" stroke="white" stroke-opacity="0.1" stroke-width="1.50321"/>
<path d="M27.4012 281.946C71.8538 217.2 223.716 86.6073 475.546 82.2054" stroke="white" stroke-opacity="0.1" stroke-width="1.50321"/>
<path d="M62.0746 339.228C88.1098 264.689 200.591 97.3961 442.236 24.5376" stroke="white" stroke-opacity="0.1" stroke-width="1.50321"/>
<path d="M38.9403 119.168V148.562V149.24C38.9403 151.694 40.9292 153.683 43.3826 153.683H84.8263C87.2798 153.683 89.2687 151.694 89.2687 149.24V118.49C89.2687 116.037 87.2798 114.048 84.8263 114.048H43.3826C40.9292 114.048 38.9403 116.037 38.9403 118.49V119.168Z" fill="url(#paint3_linear_1_1997)" stroke="#8D731D" stroke-width="0.370193"/>
<path d="M58.1831 114.238C56.1478 120.243 53.2983 136.539 58.1831 153.683" stroke="#8D731D" stroke-width="0.370193"/>
<path d="M70.7656 114.238C72.801 120.243 75.6504 136.539 70.7656 153.683" stroke="#8D731D" stroke-width="0.370193"/>
<path d="M39.1251 127.892H55.7779" stroke="#8D731D" stroke-width="0.370193"/>
<path d="M73.3553 127.702H89.268" stroke="#8D731D" stroke-width="0.370193"/>
<path d="M39.1251 139.271H55.7779" stroke="#8D731D" stroke-width="0.370193"/>
<path d="M73.3553 139.081H89.268" stroke="#8D731D" stroke-width="0.370193"/>
<path d="M38.9042 333.331C39.5175 333.415 39.9505 333.457 40.203 333.457C40.7923 333.457 41.1951 333.313 41.4116 333.024C41.628 332.736 41.7363 332.219 41.7363 331.473V319.171H44.0632V331.473C44.0632 332.844 43.8047 333.836 43.2876 334.449C42.7705 335.075 41.8866 335.387 40.6359 335.387C40.0587 335.387 39.4815 335.339 38.9042 335.243V333.331ZM50.8156 332.158C49.8896 332.158 49.0718 331.966 48.3623 331.581C47.6648 331.196 47.1237 330.649 46.7389 329.94C46.3661 329.218 46.1797 328.376 46.1797 327.414C46.1797 326.452 46.3661 325.617 46.7389 324.907C47.1237 324.185 47.6648 323.632 48.3623 323.247C49.0718 322.863 49.8896 322.67 50.8156 322.67C51.7295 322.67 52.5352 322.863 53.2327 323.247C53.9302 323.632 54.4654 324.185 54.8381 324.907C55.223 325.617 55.4154 326.452 55.4154 327.414C55.4154 328.376 55.223 329.218 54.8381 329.94C54.4654 330.649 53.9302 331.196 53.2327 331.581C52.5352 331.966 51.7295 332.158 50.8156 332.158ZM50.7975 330.391C51.5672 330.391 52.1504 330.144 52.5473 329.651C52.9561 329.146 53.1606 328.4 53.1606 327.414C53.1606 326.44 52.9561 325.701 52.5473 325.196C52.1384 324.679 51.5612 324.42 50.8156 324.42C50.0579 324.42 49.4747 324.679 49.0658 325.196C48.657 325.701 48.4525 326.44 48.4525 327.414C48.4525 328.4 48.6509 329.146 49.0478 329.651C49.4567 330.144 50.0399 330.391 50.7975 330.391ZM62.573 322.67C64.7496 322.67 65.838 323.921 65.838 326.422V332.014H63.5832V326.53C63.5832 325.809 63.4449 325.286 63.1683 324.961C62.8917 324.624 62.4648 324.456 61.8875 324.456C61.2021 324.456 60.6489 324.679 60.228 325.123C59.8071 325.556 59.5966 326.134 59.5966 326.855V332.014H57.3599V318.738H59.5966V324.222C59.9093 323.728 60.3242 323.35 60.8413 323.085C61.3584 322.809 61.9356 322.67 62.573 322.67ZM73.4419 322.67C75.6186 322.67 76.7069 323.921 76.7069 326.422V332.014H74.4521V326.53C74.4521 325.809 74.3138 325.286 74.0372 324.961C73.7606 324.624 73.3337 324.456 72.7564 324.456C72.071 324.456 71.5178 324.679 71.0969 325.123C70.676 325.556 70.4656 326.134 70.4656 326.855V332.014H68.2288V325.484C68.2288 324.522 68.1807 323.662 68.0845 322.905H70.195L70.3573 324.402C70.67 323.849 71.0909 323.422 71.62 323.121C72.1612 322.821 72.7685 322.67 73.4419 322.67ZM84.21 319.171H88.9361C91.0406 319.171 92.6701 319.73 93.8246 320.848C94.9911 321.967 95.5743 323.542 95.5743 325.574C95.5743 327.619 94.9911 329.206 93.8246 330.337C92.6701 331.455 91.0406 332.014 88.9361 332.014H84.21V319.171ZM88.7918 330.12C91.7501 330.12 93.2293 328.605 93.2293 325.574C93.2293 322.568 91.7501 321.065 88.7918 321.065H86.537V330.12H88.7918ZM101.919 332.158C100.993 332.158 100.175 331.966 99.4655 331.581C98.7681 331.196 98.2269 330.649 97.8421 329.94C97.4693 329.218 97.2829 328.376 97.2829 327.414C97.2829 326.452 97.4693 325.617 97.8421 324.907C98.2269 324.185 98.7681 323.632 99.4655 323.247C100.175 322.863 100.993 322.67 101.919 322.67C102.833 322.67 103.638 322.863 104.336 323.247C105.033 323.632 105.569 324.185 105.941 324.907C106.326 325.617 106.519 326.452 106.519 327.414C106.519 328.376 106.326 329.218 105.941 329.94C105.569 330.649 105.033 331.196 104.336 331.581C103.638 331.966 102.833 332.158 101.919 332.158ZM101.901 330.391C102.67 330.391 103.254 330.144 103.65 329.651C104.059 329.146 104.264 328.4 104.264 327.414C104.264 326.44 104.059 325.701 103.65 325.196C103.242 324.679 102.664 324.42 101.919 324.42C101.161 324.42 100.578 324.679 100.169 325.196C99.7602 325.701 99.5557 326.44 99.5557 327.414C99.5557 328.4 99.7542 329.146 100.151 329.651C100.56 330.144 101.143 330.391 101.901 330.391ZM116.436 327.577H110.159C110.207 328.551 110.447 329.272 110.88 329.741C111.325 330.198 111.981 330.427 112.846 330.427C113.845 330.427 114.771 330.102 115.624 329.453L116.274 331.004C115.841 331.353 115.306 331.635 114.668 331.852C114.043 332.056 113.406 332.158 112.756 332.158C111.265 332.158 110.093 331.738 109.239 330.896C108.385 330.054 107.958 328.9 107.958 327.432C107.958 326.506 108.144 325.683 108.517 324.961C108.89 324.24 109.413 323.68 110.087 323.284C110.76 322.875 111.524 322.67 112.377 322.67C113.628 322.67 114.614 323.079 115.336 323.897C116.069 324.703 116.436 325.815 116.436 327.234V327.577ZM112.432 324.294C111.83 324.294 111.337 324.474 110.952 324.835C110.58 325.184 110.339 325.695 110.231 326.368H114.47C114.398 325.683 114.187 325.166 113.839 324.817C113.502 324.468 113.033 324.294 112.432 324.294Z" fill="#FFFBFB"/>
<path d="M263.643 25.3671H275.188V28.3255H267.347V32.2939H274.707V35.2763H267.347V42.4917H263.643V25.3671ZM289.291 30.2977V42.4917H285.707V40.6878C285.338 41.3132 284.817 41.8022 284.144 42.155C283.47 42.5077 282.708 42.6841 281.859 42.6841C280.8 42.6841 279.862 42.4276 279.045 41.9145C278.243 41.4014 277.61 40.6718 277.145 39.7258C276.696 38.7637 276.471 37.6574 276.471 36.4067C276.471 35.156 276.696 34.0417 277.145 33.0636C277.61 32.0855 278.251 31.3319 279.069 30.8027C279.886 30.2576 280.816 29.985 281.859 29.985C282.708 29.985 283.47 30.1694 284.144 30.5382C284.817 30.907 285.338 31.404 285.707 32.0294V30.2977H289.291ZM282.917 39.9182C283.815 39.9182 284.504 39.6136 284.985 39.0043C285.466 38.395 285.707 37.5131 285.707 36.3586C285.707 35.2041 285.466 34.3223 284.985 33.713C284.504 33.0876 283.815 32.775 282.917 32.775C282.019 32.775 281.321 33.0956 280.824 33.737C280.327 34.3784 280.079 35.2683 280.079 36.4067C280.079 37.5451 280.319 38.419 280.8 39.0283C281.297 39.6216 282.003 39.9182 282.917 39.9182ZM299.317 30.0091C299.83 30.0091 300.263 30.0892 300.616 30.2496L300.592 33.5687C299.999 33.2961 299.405 33.1598 298.812 33.1598C297.85 33.1598 297.112 33.4243 296.599 33.9535C296.102 34.4666 295.854 35.1881 295.854 36.1181V42.4917H292.222V33.7851C292.222 32.4863 292.158 31.3239 292.03 30.2977H295.445L295.685 32.3901C295.99 31.6205 296.463 31.0352 297.104 30.6344C297.762 30.2175 298.499 30.0091 299.317 30.0091ZM314.07 30.2977V42.4917H310.486V40.6878C310.118 41.3132 309.596 41.8022 308.923 42.155C308.25 42.5077 307.488 42.6841 306.638 42.6841C305.58 42.6841 304.642 42.4276 303.824 41.9145C303.022 41.4014 302.389 40.6718 301.924 39.7258C301.475 38.7637 301.251 37.6574 301.251 36.4067C301.251 35.156 301.475 34.0417 301.924 33.0636C302.389 32.0855 303.03 31.3319 303.848 30.8027C304.666 30.2576 305.596 29.985 306.638 29.985C307.488 29.985 308.25 30.1694 308.923 30.5382C309.596 30.907 310.118 31.404 310.486 32.0294V30.2977H314.07ZM307.696 39.9182C308.594 39.9182 309.284 39.6136 309.765 39.0043C310.246 38.395 310.486 37.5131 310.486 36.3586C310.486 35.2041 310.246 34.3223 309.765 33.713C309.284 33.0876 308.594 32.775 307.696 32.775C306.798 32.775 306.101 33.0956 305.604 33.737C305.107 34.3784 304.858 35.2683 304.858 36.4067C304.858 37.5451 305.099 38.419 305.58 39.0283C306.077 39.6216 306.782 39.9182 307.696 39.9182ZM324.006 25.3671H335.551V28.3255H327.71V32.2939H335.07V35.2763H327.71V42.4917H324.006V25.3671ZM337.671 30.2977H341.302V42.4917H337.671V30.2977ZM341.423 24.5734V27.9887H337.55V24.5734H341.423ZM351.799 29.985C354.685 29.985 356.128 31.6926 356.128 35.1079V42.4917H352.496V35.2763C352.496 34.4265 352.336 33.8092 352.015 33.4243C351.71 33.0235 351.221 32.8231 350.548 32.8231C349.746 32.8231 349.105 33.0796 348.624 33.5927C348.143 34.1058 347.902 34.7953 347.902 35.6611V42.4917H344.271V33.7851C344.271 32.4863 344.206 31.3239 344.078 30.2977H347.493L347.734 32.2218C348.167 31.5002 348.728 30.9471 349.418 30.5622C350.123 30.1774 350.917 29.985 351.799 29.985ZM363.591 33.0155V37.7536C363.591 38.427 363.767 38.9241 364.12 39.2448C364.472 39.5494 364.929 39.7017 365.491 39.7017C365.843 39.7017 366.244 39.6456 366.693 39.5334V42.3474C366.116 42.5719 365.418 42.6841 364.601 42.6841C363.093 42.6841 361.939 42.2592 361.137 41.4094C360.352 40.5596 359.959 39.365 359.959 37.8257V33.0155H357.65V30.2977H359.959V27.4356L363.591 26.257V30.2977H366.693V33.0155H363.591ZM379.5 36.6953H371.467C371.531 37.8338 371.828 38.6675 372.357 39.1967C372.886 39.7098 373.672 39.9663 374.714 39.9663C375.339 39.9663 375.965 39.8621 376.59 39.6536C377.215 39.4452 377.792 39.1405 378.322 38.7397L379.284 41.1929C378.706 41.6579 377.985 42.0267 377.119 42.2993C376.269 42.5558 375.411 42.6841 374.546 42.6841C372.493 42.6841 370.882 42.1229 369.711 41.0005C368.541 39.8621 367.955 38.3148 367.955 36.3586C367.955 35.124 368.204 34.0256 368.701 33.0636C369.214 32.0855 369.928 31.3319 370.842 30.8027C371.756 30.2576 372.79 29.985 373.944 29.985C375.66 29.985 377.015 30.5462 378.009 31.6686C379.003 32.775 379.5 34.2742 379.5 36.1662V36.6953ZM374.04 32.5344C373.351 32.5344 372.79 32.7349 372.357 33.1357C371.94 33.5366 371.667 34.1218 371.539 34.8915H376.373C376.181 33.3201 375.403 32.5344 374.04 32.5344ZM387.553 42.6841C385.564 42.6841 384.001 42.1229 382.863 41.0005C381.74 39.8781 381.179 38.3469 381.179 36.4067C381.179 35.14 381.452 34.0256 381.997 33.0636C382.542 32.0855 383.304 31.3319 384.282 30.8027C385.276 30.2576 386.422 29.985 387.721 29.985C388.603 29.985 389.461 30.1213 390.294 30.3939C391.128 30.6665 391.794 31.0352 392.291 31.5002L391.329 34.0256C390.848 33.6408 390.319 33.3442 389.741 33.1357C389.164 32.9112 388.603 32.799 388.058 32.799C387.064 32.799 386.286 33.1037 385.725 33.713C385.18 34.3062 384.907 35.1801 384.907 36.3346C384.907 37.5051 385.18 38.395 385.725 39.0043C386.27 39.5975 387.048 39.8942 388.058 39.8942C388.603 39.8942 389.164 39.7899 389.741 39.5815C390.319 39.357 390.848 39.0524 391.329 38.6675L392.291 41.1929C391.762 41.6579 391.072 42.0267 390.222 42.2993C389.373 42.5558 388.483 42.6841 387.553 42.6841ZM401.545 29.985C404.432 29.985 405.875 31.6926 405.875 35.1079V42.4917H402.243V35.2763C402.243 34.4265 402.083 33.8092 401.762 33.4243C401.457 33.0235 400.968 32.8231 400.295 32.8231C399.493 32.8231 398.852 33.0796 398.371 33.5927C397.89 34.1058 397.649 34.7953 397.649 35.6611V42.4917H394.017V24.7899H397.649V31.9572C398.082 31.3158 398.635 30.8268 399.309 30.4901C399.982 30.1534 400.728 29.985 401.545 29.985ZM421.761 42.7082C420.463 42.7082 419.212 42.5398 418.009 42.2031C416.823 41.8503 415.837 41.3613 415.051 40.736L416.254 38.0422C417.905 39.1967 419.749 39.7739 421.785 39.7739C422.876 39.7739 423.709 39.6055 424.287 39.2688C424.88 38.9161 425.177 38.427 425.177 37.8017C425.177 37.2565 424.904 36.8316 424.359 36.527C423.83 36.2063 422.892 35.9016 421.545 35.613C420.038 35.3084 418.835 34.9396 417.937 34.5067C417.055 34.0577 416.406 33.5205 415.989 32.8952C415.588 32.2538 415.388 31.4602 415.388 30.5141C415.388 29.4879 415.668 28.566 416.23 27.7482C416.807 26.9305 417.608 26.2971 418.635 25.8482C419.661 25.3832 420.847 25.1507 422.194 25.1507C423.413 25.1507 424.583 25.3271 425.706 25.6798C426.828 26.0326 427.726 26.5136 428.4 27.1229L427.197 29.8166C425.69 28.6622 424.03 28.0849 422.218 28.0849C421.256 28.0849 420.487 28.2774 419.909 28.6622C419.332 29.047 419.044 29.5681 419.044 30.2255C419.044 30.6103 419.148 30.931 419.356 31.1876C419.581 31.4441 419.949 31.6766 420.463 31.8851C420.976 32.0775 421.705 32.2699 422.651 32.4623C424.848 32.9433 426.427 33.5687 427.389 34.3383C428.367 35.1079 428.856 36.1582 428.856 37.489C428.856 39.0924 428.231 40.3672 426.98 41.3132C425.73 42.2432 423.99 42.7082 421.761 42.7082ZM442.283 36.6953H434.249C434.314 37.8338 434.61 38.6675 435.139 39.1967C435.668 39.7098 436.454 39.9663 437.496 39.9663C438.122 39.9663 438.747 39.8621 439.372 39.6536C439.998 39.4452 440.575 39.1405 441.104 38.7397L442.066 41.1929C441.489 41.6579 440.767 42.0267 439.901 42.2993C439.052 42.5558 438.194 42.6841 437.328 42.6841C435.276 42.6841 433.664 42.1229 432.494 41.0005C431.323 39.8621 430.738 38.3148 430.738 36.3586C430.738 35.124 430.986 34.0256 431.484 33.0636C431.997 32.0855 432.71 31.3319 433.624 30.8027C434.538 30.2576 435.572 29.985 436.727 29.985C438.442 29.985 439.797 30.5462 440.791 31.6686C441.786 32.775 442.283 34.2742 442.283 36.1662V36.6953ZM436.823 32.5344C436.133 32.5344 435.572 32.7349 435.139 33.1357C434.722 33.5366 434.45 34.1218 434.322 34.8915H439.156C438.963 33.3201 438.186 32.5344 436.823 32.5344ZM451.658 30.0091C452.171 30.0091 452.604 30.0892 452.957 30.2496L452.933 33.5687C452.339 33.2961 451.746 33.1598 451.153 33.1598C450.191 33.1598 449.453 33.4243 448.94 33.9535C448.443 34.4666 448.195 35.1881 448.195 36.1181V42.4917H444.563V33.7851C444.563 32.4863 444.499 31.3239 444.37 30.2977H447.786L448.026 32.3901C448.331 31.6205 448.804 31.0352 449.445 30.6344C450.103 30.2175 450.84 30.0091 451.658 30.0091ZM467.181 30.3217L461.818 42.4917H458.739L453.448 30.3217H457.248L460.375 38.2106L463.598 30.3217H467.181ZM468.379 30.2977H472.011V42.4917H468.379V30.2977ZM472.131 24.5734V27.9887H468.259V24.5734H472.131ZM480.752 42.6841C478.763 42.6841 477.2 42.1229 476.062 41.0005C474.939 39.8781 474.378 38.3469 474.378 36.4067C474.378 35.14 474.651 34.0256 475.196 33.0636C475.741 32.0855 476.502 31.3319 477.481 30.8027C478.475 30.2576 479.621 29.985 480.92 29.985C481.802 29.985 482.66 30.1213 483.493 30.3939C484.327 30.6665 484.993 31.0352 485.49 31.5002L484.528 34.0256C484.047 33.6408 483.517 33.3442 482.94 33.1357C482.363 32.9112 481.802 32.799 481.257 32.799C480.263 32.799 479.485 33.1037 478.924 33.713C478.379 34.3062 478.106 35.1801 478.106 36.3346C478.106 37.5051 478.379 38.395 478.924 39.0043C479.469 39.5975 480.246 39.8942 481.257 39.8942C481.802 39.8942 482.363 39.7899 482.94 39.5815C483.517 39.357 484.047 39.0524 484.528 38.6675L485.49 41.1929C484.961 41.6579 484.271 42.0267 483.421 42.2993C482.571 42.5558 481.682 42.6841 480.752 42.6841ZM498.16 36.6953H490.127C490.191 37.8338 490.487 38.6675 491.016 39.1967C491.546 39.7098 492.331 39.9663 493.373 39.9663C493.999 39.9663 494.624 39.8621 495.249 39.6536C495.875 39.4452 496.452 39.1405 496.981 38.7397L497.943 41.1929C497.366 41.6579 496.644 42.0267 495.779 42.2993C494.929 42.5558 494.071 42.6841 493.205 42.6841C491.153 42.6841 489.541 42.1229 488.371 41.0005C487.2 39.8621 486.615 38.3148 486.615 36.3586C486.615 35.124 486.864 34.0256 487.361 33.0636C487.874 32.0855 488.587 31.3319 489.501 30.8027C490.415 30.2576 491.449 29.985 492.604 29.985C494.319 29.985 495.674 30.5462 496.668 31.6686C497.663 32.775 498.16 34.2742 498.16 36.1662V36.6953ZM492.7 32.5344C492.011 32.5344 491.449 32.7349 491.016 33.1357C490.6 33.5366 490.327 34.1218 490.199 34.8915H495.033C494.841 33.3201 494.063 32.5344 492.7 32.5344ZM505.106 42.6841C502.797 42.6841 500.977 42.187 499.646 41.1929L500.608 38.6675C501.25 39.1325 501.963 39.4933 502.749 39.7498C503.534 39.9904 504.336 40.1106 505.154 40.1106C505.779 40.1106 506.26 40.0144 506.597 39.822C506.934 39.6296 507.102 39.349 507.102 38.9802C507.102 38.6756 506.982 38.435 506.741 38.2587C506.501 38.0823 506.076 37.93 505.467 37.8017L503.47 37.3447C502.3 37.0882 501.434 36.6793 500.873 36.1181C500.328 35.5569 500.055 34.8113 500.055 33.8813C500.055 33.1277 500.271 32.4543 500.704 31.861C501.153 31.2677 501.771 30.8108 502.556 30.4901C503.342 30.1534 504.248 29.985 505.274 29.985C506.14 29.985 506.99 30.1213 507.824 30.3939C508.657 30.6504 509.403 31.0192 510.06 31.5002L509.05 33.9294C508.425 33.4965 507.784 33.1678 507.126 32.9433C506.485 32.7188 505.859 32.6066 505.25 32.6066C504.657 32.6066 504.192 32.7108 503.855 32.9193C503.518 33.1277 503.35 33.4163 503.35 33.7851C503.35 34.0577 503.446 34.2822 503.639 34.4586C503.847 34.6189 504.208 34.7552 504.721 34.8674L506.765 35.3244C508.016 35.613 508.922 36.0459 509.483 36.6232C510.044 37.2004 510.325 37.97 510.325 38.9321C510.325 40.0866 509.86 41.0005 508.93 41.674C508 42.3474 506.725 42.6841 505.106 42.6841Z" fill="#FFFBFB"/>
<path d="M40.3293 23.6483H45.0554C47.1599 23.6483 48.7893 24.2075 49.9438 25.3259C51.1103 26.4443 51.6935 28.0196 51.6935 30.052C51.6935 32.0963 51.1103 33.6837 49.9438 34.8141C48.7893 35.9325 47.1599 36.4917 45.0554 36.4917H40.3293V23.6483ZM44.9111 34.5977C47.8694 34.5977 49.3485 33.0824 49.3485 30.052C49.3485 27.0455 47.8694 25.5423 44.9111 25.5423H42.6562V34.5977H44.9111ZM61.8802 32.0542H55.6028C55.6509 33.0283 55.8914 33.7498 56.3244 34.2188C56.7693 34.6758 57.4247 34.9043 58.2905 34.9043C59.2887 34.9043 60.2147 34.5796 61.0685 33.9302L61.7179 35.4815C61.2849 35.8303 60.7498 36.1129 60.1124 36.3294C59.4871 36.5338 58.8497 36.636 58.2004 36.636C56.7092 36.636 55.5367 36.2151 54.6828 35.3733C53.829 34.5315 53.4021 33.3771 53.4021 31.9099C53.4021 30.9839 53.5885 30.1602 53.9613 29.4386C54.3341 28.7171 54.8572 28.1579 55.5307 27.7611C56.2041 27.3522 56.9677 27.1478 57.8215 27.1478C59.0722 27.1478 60.0583 27.5566 60.7799 28.3744C61.5134 29.1801 61.8802 30.2925 61.8802 31.7115V32.0542ZM57.8757 28.7712C57.2744 28.7712 56.7813 28.9516 56.3965 29.3124C56.0237 29.6611 55.7832 30.1722 55.675 30.8456H59.914C59.8419 30.1602 59.6314 29.6431 59.2827 29.2943C58.9459 28.9456 58.4769 28.7712 57.8757 28.7712ZM68.9847 27.1478C69.7784 27.1478 70.4759 27.3462 71.0772 27.743C71.6905 28.1278 72.1655 28.675 72.5022 29.3845C72.8389 30.094 73.0073 30.9178 73.0073 31.8558C73.0073 32.7938 72.8329 33.6296 72.4842 34.3632C72.1475 35.0847 71.6724 35.6439 71.0591 36.0407C70.4578 36.4376 69.7664 36.636 68.9847 36.636C68.3113 36.636 67.71 36.4917 67.1809 36.2031C66.6637 35.9145 66.2729 35.5116 66.0084 34.9945V36.4917H63.7896V23.2154H66.0264V28.7532C66.303 28.2481 66.6998 27.8573 67.2169 27.5807C67.734 27.2921 68.3233 27.1478 68.9847 27.1478ZM68.3894 34.8682C69.135 34.8682 69.7123 34.6037 70.1211 34.0745C70.53 33.5454 70.7344 32.8058 70.7344 31.8558C70.7344 30.9178 70.53 30.1963 70.1211 29.6912C69.7123 29.1741 69.129 28.9155 68.3714 28.9155C67.6138 28.9155 67.0305 29.1741 66.6217 29.6912C66.2128 30.2083 66.0084 30.9419 66.0084 31.8919C66.0084 32.8539 66.2128 33.5935 66.6217 34.1106C67.0305 34.6157 67.6198 34.8682 68.3894 34.8682ZM74.9756 27.3823H77.2124V36.4917H74.9756V27.3823ZM77.3386 23.2514V25.4702H74.8313V23.2514H77.3386ZM82.5471 29.0779V33.1546C82.5471 34.2249 83.0462 34.76 84.0443 34.76C84.3209 34.76 84.6215 34.7119 84.9462 34.6157V36.4015C84.5494 36.5458 84.0684 36.618 83.5032 36.618C82.469 36.618 81.6753 36.3294 81.1221 35.7521C80.5689 35.1749 80.2923 34.3451 80.2923 33.2628V29.0779H78.5426V27.3823H80.2923V25.1635L82.5471 24.4059V27.3823H84.9643V29.0779H82.5471ZM89.1923 33.9663V36.4917H86.6669V33.9663H89.1923Z" fill="#FFFBFB"/>
<ellipse cx="491.895" cy="293.597" rx="25.1642" ry="25.791" fill="#F79E1B"/>
<ellipse cx="460.44" cy="293.597" rx="25.1642" ry="25.791" fill="url(#paint4_radial_1_1997)"/>
<path d="M452.022 325.868C452.744 325.868 453.281 326.087 453.633 326.523C453.986 326.951 454.162 327.605 454.162 328.486V332.388H452.589V328.537C452.589 328.033 452.505 327.672 452.337 327.454C452.178 327.228 451.909 327.114 451.531 327.114C451.095 327.114 450.751 327.27 450.499 327.58C450.256 327.882 450.134 328.302 450.134 328.839V332.388H448.561V328.537C448.561 328.042 448.473 327.681 448.297 327.454C448.129 327.228 447.86 327.114 447.491 327.114C447.055 327.114 446.711 327.27 446.459 327.58C446.207 327.882 446.081 328.302 446.081 328.839V332.388H444.521V327.832C444.521 327.161 444.487 326.561 444.42 326.032H445.893L446.006 327.039C446.19 326.661 446.455 326.372 446.799 326.17C447.151 325.969 447.554 325.868 448.007 325.868C448.981 325.868 449.614 326.271 449.908 327.077C450.109 326.699 450.394 326.405 450.764 326.196C451.141 325.977 451.561 325.868 452.022 325.868ZM461.921 326.032V332.388H460.372V331.369C460.179 331.721 459.902 331.998 459.542 332.199C459.181 332.392 458.77 332.489 458.308 332.489C457.754 332.489 457.264 332.355 456.836 332.086C456.408 331.818 456.076 331.436 455.841 330.941C455.606 330.446 455.489 329.871 455.489 329.216C455.489 328.562 455.606 327.983 455.841 327.479C456.085 326.968 456.42 326.573 456.848 326.296C457.276 326.011 457.763 325.868 458.308 325.868C458.77 325.868 459.181 325.969 459.542 326.17C459.902 326.363 460.179 326.636 460.372 326.989V326.032H461.921ZM458.736 331.255C459.256 331.255 459.659 331.075 459.944 330.714C460.23 330.353 460.372 329.846 460.372 329.191C460.372 328.52 460.23 328.004 459.944 327.643C459.659 327.282 459.252 327.102 458.724 327.102C458.203 327.102 457.796 327.291 457.503 327.668C457.217 328.037 457.075 328.553 457.075 329.216C457.075 329.871 457.217 330.374 457.503 330.727C457.796 331.079 458.207 331.255 458.736 331.255ZM465.963 332.489C464.813 332.489 463.898 332.22 463.219 331.683L463.659 330.576C464.339 331.079 465.115 331.331 465.988 331.331C466.365 331.331 466.655 331.268 466.856 331.142C467.066 331.016 467.171 330.84 467.171 330.613C467.171 330.42 467.1 330.269 466.957 330.16C466.814 330.043 466.571 329.942 466.227 329.858L465.17 329.619C464.012 329.367 463.433 328.776 463.433 327.844C463.433 327.458 463.542 327.119 463.76 326.825C463.978 326.523 464.284 326.288 464.679 326.12C465.073 325.952 465.53 325.868 466.051 325.868C466.504 325.868 466.94 325.94 467.36 326.082C467.779 326.217 468.148 326.414 468.467 326.674L468.002 327.744C467.364 327.274 466.709 327.039 466.038 327.039C465.677 327.039 465.396 327.106 465.195 327.24C464.993 327.375 464.893 327.559 464.893 327.794C464.893 327.979 464.951 328.126 465.069 328.235C465.195 328.344 465.405 328.436 465.698 328.512L466.781 328.751C467.41 328.893 467.867 329.116 468.153 329.418C468.446 329.711 468.593 330.097 468.593 330.576C468.593 331.163 468.358 331.629 467.888 331.973C467.418 332.317 466.777 332.489 465.963 332.489ZM471.879 327.215V330.06C471.879 330.806 472.228 331.18 472.924 331.18C473.117 331.18 473.327 331.146 473.553 331.079V332.325C473.277 332.426 472.941 332.476 472.547 332.476C471.825 332.476 471.271 332.275 470.885 331.872C470.499 331.469 470.306 330.89 470.306 330.135V327.215H469.085V326.032H470.306V324.484L471.879 323.955V326.032H473.566V327.215H471.879ZM480.211 329.292H475.83C475.864 329.972 476.032 330.475 476.334 330.802C476.644 331.121 477.102 331.281 477.706 331.281C478.402 331.281 479.048 331.054 479.644 330.601L480.097 331.683C479.795 331.927 479.422 332.124 478.977 332.275C478.541 332.418 478.096 332.489 477.643 332.489C476.602 332.489 475.784 332.195 475.189 331.608C474.593 331.02 474.295 330.215 474.295 329.191C474.295 328.545 474.425 327.97 474.685 327.467C474.945 326.963 475.31 326.573 475.78 326.296C476.25 326.011 476.783 325.868 477.379 325.868C478.251 325.868 478.939 326.154 479.443 326.724C479.955 327.286 480.211 328.063 480.211 329.053V329.292ZM477.416 327.001C476.997 327.001 476.653 327.127 476.384 327.379C476.124 327.622 475.956 327.979 475.881 328.449H478.839C478.788 327.97 478.641 327.609 478.398 327.366C478.163 327.123 477.836 327.001 477.416 327.001ZM484.966 325.881C485.21 325.881 485.42 325.914 485.596 325.982L485.583 327.416C485.315 327.307 485.038 327.253 484.752 327.253C484.215 327.253 483.804 327.408 483.519 327.719C483.242 328.029 483.104 328.44 483.104 328.952V332.388H481.543V327.832C481.543 327.161 481.509 326.561 481.442 326.032H482.915L483.041 327.152C483.2 326.741 483.452 326.426 483.796 326.208C484.14 325.99 484.53 325.881 484.966 325.881ZM489.231 332.489C488.568 332.489 487.994 332.355 487.507 332.086C487.02 331.818 486.647 331.44 486.387 330.953C486.127 330.458 485.996 329.879 485.996 329.216C485.996 328.553 486.131 327.97 486.399 327.467C486.676 326.963 487.062 326.573 487.557 326.296C488.061 326.011 488.64 325.868 489.294 325.868C489.747 325.868 490.184 325.94 490.603 326.082C491.031 326.225 491.371 326.422 491.623 326.674L491.182 327.781C490.914 327.563 490.628 327.4 490.326 327.291C490.024 327.173 489.726 327.114 489.433 327.114C488.862 327.114 488.417 327.295 488.098 327.656C487.78 328.008 487.62 328.52 487.62 329.191C487.62 329.862 487.775 330.374 488.086 330.727C488.405 331.079 488.854 331.255 489.433 331.255C489.726 331.255 490.024 331.197 490.326 331.079C490.628 330.962 490.914 330.794 491.182 330.576L491.623 331.683C491.354 331.935 491.006 332.132 490.578 332.275C490.15 332.418 489.701 332.489 489.231 332.489ZM498.758 326.032V332.388H497.21V331.369C497.017 331.721 496.74 331.998 496.38 332.199C496.019 332.392 495.608 332.489 495.146 332.489C494.592 332.489 494.101 332.355 493.673 332.086C493.245 331.818 492.914 331.436 492.679 330.941C492.444 330.446 492.327 329.871 492.327 329.216C492.327 328.562 492.444 327.983 492.679 327.479C492.922 326.968 493.258 326.573 493.686 326.296C494.114 326.011 494.601 325.868 495.146 325.868C495.608 325.868 496.019 325.969 496.38 326.17C496.74 326.363 497.017 326.636 497.21 326.989V326.032H498.758ZM495.574 331.255C496.094 331.255 496.497 331.075 496.782 330.714C497.068 330.353 497.21 329.846 497.21 329.191C497.21 328.52 497.068 328.004 496.782 327.643C496.497 327.282 496.09 327.102 495.561 327.102C495.041 327.102 494.634 327.291 494.34 327.668C494.055 328.037 493.913 328.553 493.913 329.216C493.913 329.871 494.055 330.374 494.34 330.727C494.634 331.079 495.045 331.255 495.574 331.255ZM503.895 325.881C504.139 325.881 504.349 325.914 504.525 325.982L504.512 327.416C504.244 327.307 503.967 327.253 503.681 327.253C503.144 327.253 502.733 327.408 502.448 327.719C502.171 328.029 502.033 328.44 502.033 328.952V332.388H500.472V327.832C500.472 327.161 500.438 326.561 500.371 326.032H501.844L501.97 327.152C502.129 326.741 502.381 326.426 502.725 326.208C503.069 325.99 503.459 325.881 503.895 325.881ZM511.357 323.124V332.388H509.809V331.369C509.616 331.721 509.339 331.998 508.978 332.199C508.618 332.392 508.206 332.489 507.745 332.489C507.199 332.489 506.713 332.35 506.285 332.074C505.857 331.797 505.521 331.406 505.278 330.903C505.043 330.391 504.925 329.808 504.925 329.153C504.925 328.499 505.043 327.924 505.278 327.429C505.513 326.934 505.844 326.552 506.272 326.284C506.7 326.007 507.191 325.868 507.745 325.868C508.198 325.868 508.601 325.965 508.953 326.158C509.314 326.342 509.591 326.607 509.784 326.951V323.124H511.357ZM508.16 331.255C508.68 331.255 509.083 331.075 509.369 330.714C509.662 330.353 509.809 329.842 509.809 329.179C509.809 328.516 509.666 328.004 509.381 327.643C509.096 327.282 508.693 327.102 508.173 327.102C507.644 327.102 507.233 327.282 506.939 327.643C506.654 327.995 506.511 328.499 506.511 329.153C506.511 329.816 506.654 330.332 506.939 330.702C507.233 331.071 507.64 331.255 508.16 331.255Z" fill="white"/>
<path d="M46.8651 252.564L44.033 258.986H43.2483L40.4163 252.564H41.3904L43.6452 257.813L45.909 252.564H46.8651ZM51.2085 257.398H47.9616L47.2761 258.986H46.3291L49.1882 252.564H49.9729L52.841 258.986H51.894L51.2085 257.398ZM50.8929 256.659L49.5851 253.601L48.2773 256.659H50.8929ZM53.6727 252.564H54.6017V258.21H57.7223V258.986H53.6727V252.564ZM58.6491 252.564H59.5781V258.986H58.6491V252.564ZM61.0713 252.564H63.3171C64.3573 252.564 65.163 252.844 65.7343 253.403C66.3055 253.962 66.5911 254.75 66.5911 255.766C66.5911 256.788 66.3055 257.582 65.7343 258.147C65.163 258.706 64.3573 258.986 63.3171 258.986H61.0713V252.564ZM63.263 258.21C64.8444 258.21 65.635 257.395 65.635 255.766C65.635 254.149 64.8444 253.34 63.263 253.34H62.0003V258.21H63.263ZM42.7252 264.34H40.5516V263.564H45.8369V264.34H43.6632V269.986H42.7252V264.34ZM52.1445 263.564V269.986H51.2155V267.109H47.6168V269.986H46.6969V263.564H47.6168V266.342H51.2155V263.564H52.1445ZM58.7875 269.986H57.8044L57.0016 267.848C56.9175 267.62 56.7942 267.463 56.6319 267.379C56.4695 267.289 56.247 267.244 55.9644 267.244H54.5574V269.986H53.6375V263.564H56.2801C56.9836 263.564 57.5218 263.72 57.8946 264.033C58.2734 264.346 58.4628 264.794 58.4628 265.377C58.4628 265.798 58.3515 266.156 58.1291 266.45C57.9066 266.745 57.5909 266.952 57.182 267.073C57.5548 267.139 57.8254 267.403 57.9938 267.866L58.7875 269.986ZM56.1719 266.495C56.6409 266.495 56.9896 266.405 57.2181 266.225C57.4466 266.038 57.5608 265.762 57.5608 265.395C57.5608 265.028 57.4466 264.758 57.2181 264.583C56.9956 264.403 56.6469 264.313 56.1719 264.313H54.5574V266.495H56.1719ZM62.4968 270.058C61.6429 270.058 60.9936 269.836 60.5486 269.391C60.1097 268.946 59.8902 268.293 59.8902 267.433V263.564H60.8012V267.497C60.8012 268.092 60.9425 268.543 61.2251 268.849C61.5137 269.15 61.9376 269.3 62.4968 269.3C63.05 269.3 63.4678 269.147 63.7504 268.84C64.0391 268.534 64.1834 268.086 64.1834 267.497V263.564H65.1033V267.433C65.1033 268.293 64.8809 268.946 64.4359 269.391C63.997 269.836 63.3506 270.058 62.4968 270.058Z" fill="#FFFBFB"/>
<path d="M89.1991 266.453V267.986H81.6951V266.453H84.5091V257.361L81.8935 258.985V257.271L85.3028 255.142H86.3851V266.453H89.1991ZM100.159 266.453V267.986H91.7355V266.597L96.1549 261.745C96.7202 261.119 97.129 260.554 97.3816 260.049C97.6461 259.532 97.7784 259.021 97.7784 258.516C97.7784 257.866 97.592 257.373 97.2192 257.036C96.8464 256.688 96.3053 256.513 95.5958 256.513C94.4052 256.513 93.2147 256.982 92.0241 257.92L91.3567 256.549C91.8618 256.08 92.5052 255.708 93.2868 255.431C94.0685 255.142 94.8562 254.998 95.6499 254.998C96.8765 254.998 97.8446 255.305 98.5541 255.918C99.2756 256.531 99.6364 257.361 99.6364 258.407C99.6364 259.153 99.474 259.863 99.1493 260.536C98.8246 261.197 98.2835 261.937 97.5259 262.755L94.0986 266.453H100.159ZM100.712 269.014L105.366 254.439H106.971L102.299 269.014H100.712ZM116.366 266.453V267.986H107.942V266.597L112.361 261.745C112.927 261.119 113.335 260.554 113.588 260.049C113.853 259.532 113.985 259.021 113.985 258.516C113.985 257.866 113.798 257.373 113.426 257.036C113.053 256.688 112.512 256.513 111.802 256.513C110.612 256.513 109.421 256.982 108.231 257.92L107.563 256.549C108.068 256.08 108.712 255.708 109.493 255.431C110.275 255.142 111.063 254.998 111.856 254.998C113.083 254.998 114.051 255.305 114.761 255.918C115.482 256.531 115.843 257.361 115.843 258.407C115.843 259.153 115.68 259.863 115.356 260.536C115.031 261.197 114.49 261.937 113.732 262.755L110.305 266.453H116.366ZM127.651 265.316H125.757V267.986H123.917V265.316H118.163V263.927L124.26 255.142H125.757V263.819H127.651V265.316ZM123.917 263.819V258.155L119.985 263.819H123.917Z" fill="#FFFBFB"/>
<path d="M52.6269 186.141C54.2383 186.141 55.6453 186.49 56.8479 187.187C58.0745 187.861 59.0125 188.823 59.6619 190.073C60.3353 191.3 60.672 192.719 60.672 194.33C60.672 195.99 60.2992 197.445 59.5537 198.696C58.8321 199.946 57.7859 200.92 56.415 201.618C55.044 202.315 53.4446 202.664 51.6167 202.664C50.0293 202.664 48.466 202.388 46.9267 201.834C45.3874 201.281 44.1127 200.524 43.1025 199.562L44.4013 196.82C46.7824 198.696 49.1996 199.634 51.6528 199.634C53.3604 199.634 54.6833 199.177 55.6213 198.263C56.5833 197.325 57.0643 196.038 57.0643 194.403C57.0643 192.839 56.5833 191.576 55.6213 190.614C54.6833 189.652 53.4206 189.171 51.8332 189.171C49.5242 189.171 47.6723 190.049 46.2773 191.805H43.8602V176.725H59.5897V179.719H47.54V187.873C48.9109 186.718 50.6066 186.141 52.6269 186.141ZM78.6243 189.207C80.1155 189.64 81.2579 190.386 82.0516 191.444C82.8453 192.502 83.2422 193.837 83.2422 195.449C83.2422 197.686 82.4485 199.453 80.8611 200.752C79.2977 202.027 77.1692 202.664 74.4754 202.664C72.7678 202.664 71.1323 202.4 69.569 201.87C68.0297 201.317 66.7429 200.548 65.7087 199.562L67.0436 196.82C69.3525 198.696 71.7937 199.634 74.3672 199.634C77.8787 199.634 79.6345 198.155 79.6345 195.196C79.6345 193.753 79.1775 192.683 78.2635 191.985C77.3496 191.264 75.9666 190.903 74.1147 190.903H70.976V187.873H73.5374C75.3172 187.873 76.6761 187.5 77.6141 186.754C78.5521 186.009 79.0211 184.926 79.0211 183.507C79.0211 182.208 78.6243 181.21 77.8306 180.513C77.061 179.815 75.9666 179.467 74.5476 179.467C72.1425 179.467 69.7614 180.405 67.4043 182.281L66.0695 179.539C67.0797 178.577 68.3544 177.819 69.8937 177.266C71.457 176.713 73.0684 176.436 74.728 176.436C77.1331 176.436 79.0452 177.037 80.4642 178.24C81.9073 179.419 82.6288 181.018 82.6288 183.038C82.6288 184.505 82.2801 185.78 81.5826 186.862C80.8851 187.945 79.899 188.726 78.6243 189.207ZM99.4988 186.141C101.11 186.141 102.517 186.49 103.72 187.187C104.946 187.861 105.884 188.823 106.534 190.073C107.207 191.3 107.544 192.719 107.544 194.33C107.544 195.99 107.171 197.445 106.426 198.696C105.704 199.946 104.658 200.92 103.287 201.618C101.916 202.315 100.317 202.664 98.4886 202.664C96.9013 202.664 95.3379 202.388 93.7986 201.834C92.2593 201.281 90.9846 200.524 89.9745 199.562L91.2732 196.82C93.6543 198.696 96.0715 199.634 98.5247 199.634C100.232 199.634 101.555 199.177 102.493 198.263C103.455 197.325 103.936 196.038 103.936 194.403C103.936 192.839 103.455 191.576 102.493 190.614C101.555 189.652 100.292 189.171 98.7051 189.171C96.3962 189.171 94.5442 190.049 93.1492 191.805H90.7321V176.725H106.462V179.719H94.4119V187.873C95.7829 186.718 97.4785 186.141 99.4988 186.141ZM122.935 186.141C124.546 186.141 125.953 186.49 127.156 187.187C128.382 187.861 129.32 188.823 129.97 190.073C130.643 191.3 130.98 192.719 130.98 194.33C130.98 195.99 130.607 197.445 129.862 198.696C129.14 199.946 128.094 200.92 126.723 201.618C125.352 202.315 123.753 202.664 121.925 202.664C120.337 202.664 118.774 202.388 117.235 201.834C115.695 201.281 114.421 200.524 113.41 199.562L114.709 196.82C117.09 198.696 119.507 199.634 121.961 199.634C123.668 199.634 124.991 199.177 125.929 198.263C126.891 197.325 127.372 196.038 127.372 194.403C127.372 192.839 126.891 191.576 125.929 190.614C124.991 189.652 123.728 189.171 122.141 189.171C119.832 189.171 117.98 190.049 116.585 191.805H114.168V176.725H129.898V179.719H117.848V187.873C119.219 186.718 120.914 186.141 122.935 186.141ZM179.41 202.7C176.428 202.7 174.155 201.582 172.592 199.345C171.028 197.108 170.247 193.849 170.247 189.568C170.247 185.287 171.028 182.028 172.592 179.791C174.155 177.555 176.428 176.436 179.41 176.436C182.393 176.436 184.665 177.555 186.229 179.791C187.792 182.004 188.574 185.251 188.574 189.532C188.574 193.837 187.792 197.108 186.229 199.345C184.665 201.582 182.393 202.7 179.41 202.7ZM179.41 199.706C181.262 199.706 182.621 198.888 183.487 197.253C184.377 195.593 184.822 193.02 184.822 189.532C184.822 186.045 184.389 183.495 183.523 181.884C182.657 180.272 181.286 179.467 179.41 179.467C177.558 179.467 176.187 180.284 175.297 181.92C174.432 183.531 173.999 186.069 173.999 189.532C173.999 193.02 174.432 195.593 175.297 197.253C176.187 198.888 177.558 199.706 179.41 199.706ZM206.634 189.207C208.125 189.64 209.268 190.386 210.062 191.444C210.855 192.502 211.252 193.837 211.252 195.449C211.252 197.686 210.458 199.453 208.871 200.752C207.308 202.027 205.179 202.664 202.485 202.664C200.778 202.664 199.142 202.4 197.579 201.87C196.04 201.317 194.753 200.548 193.719 199.562L195.054 196.82C197.362 198.696 199.804 199.634 202.377 199.634C205.889 199.634 207.644 198.155 207.644 195.196C207.644 193.753 207.187 192.683 206.273 191.985C205.36 191.264 203.977 190.903 202.125 190.903H198.986V187.873H201.547C203.327 187.873 204.686 187.5 205.624 186.754C206.562 186.009 207.031 184.926 207.031 183.507C207.031 182.208 206.634 181.21 205.841 180.513C205.071 179.815 203.977 179.467 202.558 179.467C200.152 179.467 197.771 180.405 195.414 182.281L194.079 179.539C195.09 178.577 196.364 177.819 197.904 177.266C199.467 176.713 201.078 176.436 202.738 176.436C205.143 176.436 207.055 177.037 208.474 178.24C209.917 179.419 210.639 181.018 210.639 183.038C210.639 184.505 210.29 185.78 209.593 186.862C208.895 187.945 207.909 188.726 206.634 189.207ZM236.059 197.072H232.271V202.412H228.591V197.072H217.083V194.294L229.277 176.725H232.271V194.078H236.059V197.072ZM228.591 194.078V182.75L220.726 194.078H228.591ZM253.831 189.207C255.49 189.664 256.777 190.446 257.691 191.552C258.629 192.659 259.098 193.994 259.098 195.557C259.098 197.77 258.244 199.513 256.537 200.788C254.853 202.039 252.58 202.664 249.718 202.664C246.856 202.664 244.571 202.039 242.863 200.788C241.18 199.513 240.338 197.77 240.338 195.557C240.338 193.97 240.807 192.623 241.745 191.516C242.683 190.41 243.994 189.64 245.677 189.207C244.186 188.726 243.02 187.969 242.178 186.935C241.36 185.9 240.951 184.686 240.951 183.291C240.951 181.92 241.324 180.717 242.07 179.683C242.815 178.649 243.85 177.855 245.172 177.302C246.495 176.725 248.01 176.436 249.718 176.436C251.426 176.436 252.941 176.725 254.264 177.302C255.587 177.855 256.621 178.649 257.366 179.683C258.112 180.717 258.485 181.92 258.485 183.291C258.485 184.686 258.076 185.912 257.258 186.971C256.44 188.005 255.298 188.75 253.831 189.207ZM244.523 183.615C244.523 184.866 244.992 185.888 245.93 186.682C246.868 187.452 248.131 187.945 249.718 188.161C251.305 187.945 252.568 187.452 253.506 186.682C254.444 185.888 254.913 184.866 254.913 183.615C254.913 182.293 254.444 181.27 253.506 180.549C252.592 179.803 251.33 179.431 249.718 179.431C248.107 179.431 246.832 179.803 245.894 180.549C244.98 181.27 244.523 182.293 244.523 183.615ZM249.718 199.67C251.57 199.67 253.001 199.297 254.011 198.551C255.021 197.806 255.527 196.723 255.527 195.304C255.527 193.982 254.997 192.935 253.939 192.166C252.905 191.372 251.498 190.867 249.718 190.651C247.938 190.867 246.519 191.372 245.461 192.166C244.427 192.935 243.91 193.982 243.91 195.304C243.91 196.723 244.415 197.806 245.425 198.551C246.435 199.297 247.866 199.67 249.718 199.67ZM308.647 186.141C310.258 186.141 311.665 186.49 312.868 187.187C314.094 187.861 315.032 188.823 315.682 190.073C316.355 191.3 316.692 192.719 316.692 194.33C316.692 195.99 316.319 197.445 315.574 198.696C314.852 199.946 313.806 200.92 312.435 201.618C311.064 202.315 309.465 202.664 307.637 202.664C306.049 202.664 304.486 202.388 302.947 201.834C301.407 201.281 300.133 200.524 299.122 199.562L300.421 196.82C302.802 198.696 305.219 199.634 307.673 199.634C309.38 199.634 310.703 199.177 311.641 198.263C312.603 197.325 313.084 196.038 313.084 194.403C313.084 192.839 312.603 191.576 311.641 190.614C310.703 189.652 309.44 189.171 307.853 189.171C305.544 189.171 303.692 190.049 302.297 191.805H299.88V176.725H315.61V179.719H303.56V187.873C304.931 186.718 306.626 186.141 308.647 186.141ZM330.062 176.436C333.237 176.436 335.678 177.518 337.386 179.683C339.094 181.848 339.948 184.95 339.948 188.991C339.948 191.853 339.539 194.318 338.721 196.387C337.927 198.431 336.761 199.994 335.221 201.077C333.706 202.159 331.89 202.7 329.774 202.7C328.259 202.7 326.791 202.436 325.372 201.907C323.953 201.353 322.715 200.584 321.657 199.598L322.955 196.856C324.158 197.842 325.3 198.563 326.383 199.02C327.489 199.453 328.583 199.67 329.666 199.67C331.758 199.67 333.37 198.756 334.5 196.928C335.654 195.076 336.232 192.454 336.232 189.063V188.955C335.702 190.206 334.837 191.192 333.634 191.913C332.456 192.635 331.097 192.996 329.557 192.996C328.018 192.996 326.647 192.659 325.445 191.985C324.242 191.288 323.304 190.326 322.631 189.099C321.957 187.849 321.62 186.417 321.62 184.806C321.62 183.195 321.981 181.764 322.703 180.513C323.424 179.238 324.422 178.24 325.697 177.518C326.996 176.797 328.451 176.436 330.062 176.436ZM330.243 189.965C331.782 189.965 333.033 189.484 333.995 188.522C334.957 187.536 335.438 186.273 335.438 184.734C335.438 183.171 334.957 181.908 333.995 180.946C333.033 179.96 331.782 179.467 330.243 179.467C328.728 179.467 327.513 179.948 326.599 180.91C325.685 181.872 325.228 183.146 325.228 184.734C325.228 186.297 325.685 187.56 326.599 188.522C327.537 189.484 328.752 189.965 330.243 189.965ZM364.069 197.072H360.281V202.412H356.601V197.072H345.092V194.294L357.286 176.725H360.281V194.078H364.069V197.072ZM356.601 194.078V182.75L348.736 194.078H356.601ZM378.955 186.141C380.566 186.141 381.973 186.49 383.176 187.187C384.402 187.861 385.34 188.823 385.99 190.073C386.663 191.3 387 192.719 387 194.33C387 195.99 386.627 197.445 385.881 198.696C385.16 199.946 384.114 200.92 382.743 201.618C381.372 202.315 379.772 202.664 377.945 202.664C376.357 202.664 374.794 202.388 373.255 201.834C371.715 201.281 370.441 200.524 369.43 199.562L370.729 196.82C373.11 198.696 375.527 199.634 377.981 199.634C379.688 199.634 381.011 199.177 381.949 198.263C382.911 197.325 383.392 196.038 383.392 194.403C383.392 192.839 382.911 191.576 381.949 190.614C381.011 189.652 379.748 189.171 378.161 189.171C375.852 189.171 374 190.049 372.605 191.805H370.188V176.725H385.918V179.719H373.868V187.873C375.239 186.718 376.934 186.141 378.955 186.141ZM436.657 186.141C438.268 186.141 439.675 186.49 440.878 187.187C442.104 187.861 443.042 188.823 443.692 190.073C444.365 191.3 444.702 192.719 444.702 194.33C444.702 195.99 444.329 197.445 443.584 198.696C442.862 199.946 441.816 200.92 440.445 201.618C439.074 202.315 437.474 202.664 435.647 202.664C434.059 202.664 432.496 202.388 430.957 201.834C429.417 201.281 428.143 200.524 427.132 199.562L428.431 196.82C430.812 198.696 433.229 199.634 435.683 199.634C437.39 199.634 438.713 199.177 439.651 198.263C440.613 197.325 441.094 196.038 441.094 194.403C441.094 192.839 440.613 191.576 439.651 190.614C438.713 189.652 437.45 189.171 435.863 189.171C433.554 189.171 431.702 190.049 430.307 191.805H427.89V176.725H443.62V179.719H431.57V187.873C432.941 186.718 434.636 186.141 436.657 186.141ZM458.866 202.7C455.884 202.7 453.611 201.582 452.048 199.345C450.484 197.108 449.703 193.849 449.703 189.568C449.703 185.287 450.484 182.028 452.048 179.791C453.611 177.555 455.884 176.436 458.866 176.436C461.848 176.436 464.121 177.555 465.685 179.791C467.248 182.004 468.03 185.251 468.03 189.532C468.03 193.837 467.248 197.108 465.685 199.345C464.121 201.582 461.848 202.7 458.866 202.7ZM458.866 199.706C460.718 199.706 462.077 198.888 462.943 197.253C463.833 195.593 464.278 193.02 464.278 189.532C464.278 186.045 463.845 183.495 462.979 181.884C462.113 180.272 460.742 179.467 458.866 179.467C457.014 179.467 455.643 180.284 454.753 181.92C453.887 183.531 453.455 186.069 453.455 189.532C453.455 193.02 453.887 195.593 454.753 197.253C455.643 198.888 457.014 199.706 458.866 199.706ZM492.079 197.072H488.291V202.412H484.611V197.072H473.102V194.294L485.296 176.725H488.291V194.078H492.079V197.072ZM484.611 194.078V182.75L476.746 194.078H484.611ZM506.965 186.141C508.576 186.141 509.983 186.49 511.186 187.187C512.412 187.861 513.35 188.823 514 190.073C514.673 191.3 515.01 192.719 515.01 194.33C515.01 195.99 514.637 197.445 513.891 198.696C513.17 199.946 512.124 200.92 510.753 201.618C509.382 202.315 507.782 202.664 505.954 202.664C504.367 202.664 502.804 202.388 501.264 201.834C499.725 201.281 498.45 200.524 497.44 199.562L498.739 196.82C501.12 198.696 503.537 199.634 505.991 199.634C507.698 199.634 509.021 199.177 509.959 198.263C510.921 197.325 511.402 196.038 511.402 194.403C511.402 192.839 510.921 191.576 509.959 190.614C509.021 189.652 507.758 189.171 506.171 189.171C503.862 189.171 502.01 190.049 500.615 191.805H498.198V176.725H513.928V179.719H501.878V187.873C503.249 186.718 504.944 186.141 506.965 186.141Z" fill="#FFFBFB"/>
<path d="M470.577 63.0068V73.4834H471.88V68.9573H476.57V67.6394H471.88V64.338H477.455V63.0068H470.577ZM481.884 65.6692C481.181 65.6692 480.543 65.8423 479.97 66.2017C479.383 66.5478 478.927 67.0271 478.576 67.6128C478.224 68.2118 478.055 68.8641 478.055 69.583C478.055 70.3018 478.224 70.9541 478.576 71.5398C478.927 72.1389 479.383 72.6048 479.97 72.9642C480.543 73.3103 481.181 73.4834 481.884 73.4834C482.366 73.4834 482.822 73.4035 483.252 73.2305C483.682 73.0574 484.073 72.8178 484.412 72.5116V73.4834H485.714V69.583C485.714 68.8508 485.532 68.1985 485.193 67.6128C484.842 67.0138 484.386 66.5478 483.812 66.2017C483.226 65.8423 482.588 65.6692 481.884 65.6692ZM481.884 67.0004C482.353 67.0004 482.783 67.1069 483.161 67.3466C483.539 67.5729 483.852 67.8923 484.073 68.2784C484.307 68.6644 484.412 69.1037 484.412 69.583C484.412 70.0489 484.307 70.4882 484.073 70.8742C483.852 71.2736 483.539 71.5798 483.161 71.8194C482.783 72.0457 482.353 72.1655 481.884 72.1655C481.416 72.1655 480.999 72.0457 480.608 71.8194C480.23 71.5798 479.93 71.2736 479.696 70.8742C479.475 70.4882 479.357 70.0489 479.357 69.583C479.357 69.1037 479.475 68.6644 479.696 68.2784C479.93 67.8923 480.23 67.5729 480.608 67.3466C480.999 67.1069 481.416 67.0004 481.884 67.0004ZM487.147 65.6692V73.4834H488.45V69.583C488.45 69.1037 488.554 68.6644 488.789 68.2784C489.01 67.8923 489.31 67.5729 489.7 67.3466C490.078 67.1069 490.508 67.0004 490.977 67.0004V65.6692C490.482 65.6692 490.039 65.7491 489.609 65.9222C489.166 66.0952 488.789 66.3348 488.45 66.641V65.6692H487.147ZM495.406 65.6692C494.716 65.6692 494.064 65.8423 493.491 66.2017C492.905 66.5478 492.449 67.0271 492.097 67.6128C491.759 68.2118 491.576 68.8641 491.576 69.583C491.576 70.3018 491.759 70.9541 492.097 71.5398C492.449 72.1389 492.905 72.6048 493.491 72.9642C494.064 73.3103 494.716 73.4834 495.406 73.4834C495.888 73.4834 496.357 73.4035 496.787 73.2305C497.204 73.0574 497.595 72.8178 497.933 72.5116V73.4834H499.236V69.583C499.236 68.8508 499.054 68.1985 498.715 67.6128C498.363 67.0138 497.907 66.5478 497.334 66.2017C496.761 65.8423 496.11 65.6692 495.406 65.6692ZM495.406 67.0004C495.875 67.0004 496.305 67.1069 496.683 67.3466C497.06 67.5729 497.373 67.8923 497.595 68.2784C497.829 68.6644 497.933 69.1037 497.933 69.583C497.933 70.0489 497.829 70.4882 497.595 70.8742C497.373 71.2736 497.06 71.5798 496.683 71.8194C496.305 72.0457 495.875 72.1655 495.406 72.1655C494.937 72.1655 494.52 72.0457 494.129 71.8194C493.752 71.5798 493.452 71.2736 493.218 70.8742C492.996 70.4882 492.892 70.0489 492.892 69.583C492.892 69.1037 492.996 68.6644 493.218 68.2784C493.452 67.8923 493.752 67.5729 494.129 67.3466C494.52 67.1069 494.937 67.0004 495.406 67.0004Z" fill="white"/>
<path fill-rule="evenodd" clip-rule="evenodd" d="M465.991 61.3574H465.809V74.8691H465.991V61.3574Z" fill="white"/>
<path fill-rule="evenodd" clip-rule="evenodd" d="M450.775 60.7205L459.881 58.3643C462.16 57.7653 462.721 61.253 460.389 61.8521L451.7 64.0885C450.423 64.6076 449.915 65.2999 449.551 66.0187C449.069 64.8739 448.027 61.4394 450.775 60.7205Z" fill="white"/>
<path fill-rule="evenodd" clip-rule="evenodd" d="M452.105 75.6018L452.092 75.5618L451.584 73.1923C451.271 71.7014 451.271 70.5299 451.441 69.9309C451.714 68.9325 452.222 68.1337 453.004 67.5613C453.785 66.9756 454.971 66.4964 456.534 66.1236L458.384 65.6977C459.713 65.5113 460.468 67.5746 458.918 68.1204L457.446 68.4665C456.117 68.7993 455.297 69.1321 454.945 69.3984C454.28 69.9176 454.02 70.6897 454.267 71.7812L454.971 74.9229C455.414 76.6002 452.652 77.6385 452.105 75.6018Z" fill="white"/>
<path d="M451.802 75.9328L451.789 75.8795L451.047 73.1506C450.565 71.42 450.5 70.0489 450.656 69.3433C450.904 68.1586 451.438 67.2001 452.323 66.468C453.196 65.7225 454.551 65.0968 456.362 64.551L458.472 63.912C460.022 63.6059 461.051 65.9621 459.267 66.7076L457.573 67.2134C456.049 67.6927 455.111 68.1453 454.72 68.4781C453.978 69.1304 453.717 70.0622 454.069 71.3135L455.098 74.9211C455.736 76.8513 452.584 78.2757 451.802 75.9328Z" fill="white"/>
<defs>
<filter id="filter0_b_1_1997" x="-29.222" y="-29.222" width="614.444" height="412.444" filterUnits="userSpaceOnUse" color-interpolation-filters="sRGB">
<feFlood flood-opacity="0" result="BackgroundImageFix"/>
<feGaussianBlur in="BackgroundImageFix" stdDeviation="13.111"/>
<feComposite in2="SourceAlpha" operator="in" result="effect1_backgroundBlur_1_1997"/>
<feBlend mode="normal" in="SourceGraphic" in2="effect1_backgroundBlur_1_1997" result="shape"/>
</filter>
<linearGradient id="paint0_linear_1_1997" x1="278" y1="15.4813" x2="278" y2="357" gradientUnits="userSpaceOnUse">
<stop offset="0.0898697" stop-color="#2709BB"/>
<stop offset="1" stop-color="#4A47FF"/>
</linearGradient>
<radialGradient id="paint1_radial_1_1997" cx="0" cy="0" r="1" gradientUnits="userSpaceOnUse" gradientTransform="translate(559 357) rotate(-147.644) scale(656.607 1061.93)">
<stop stop-color="white" stop-opacity="0.55"/>
<stop offset="1" stop-color="white" stop-opacity="0"/>
</radialGradient>
<radialGradient id="paint2_radial_1_1997" cx="0" cy="0" r="1" gradientUnits="userSpaceOnUse" gradientTransform="translate(-3 3.44778) rotate(32.1739) scale(663.96 1073.98)">
<stop stop-color="white" stop-opacity="0.27"/>
</radialGradient>
<linearGradient id="paint3_linear_1_1997" x1="88.6631" y1="114.1" x2="38.1457" y2="152.934" gradientUnits="userSpaceOnUse">
<stop stop-color="#E7BD61"/>
<stop offset="0.495738" stop-color="#FEE9BA"/>
<stop offset="1" stop-color="#E7BD61"/>
</linearGradient>
<radialGradient id="paint4_radial_1_1997" cx="0" cy="0" r="1" gradientUnits="userSpaceOnUse" gradientTransform="translate(485.604 293.597) rotate(-180) scale(34.0765 34.9254)">
<stop stop-color="#EB001B" stop-opacity="0.92"/>
<stop offset="0.110299" stop-color="#EB001B" stop-opacity="0.803455"/>
<stop offset="1" stop-color="#EB001B"/>
</radialGradient>
</defs>
</svg>
