<svg width="35" height="34" viewBox="0 0 35 34" fill="none" xmlns="http://www.w3.org/2000/svg">
<path d="M18.9642 17.4544C18.9642 20.3653 16.5648 22.7291 13.5924 22.7291C10.62 22.7291 8.22064 20.3653 8.22064 17.4544C8.22064 14.5434 10.62 12.1797 13.5924 12.1797C16.5648 12.1797 18.9642 14.5434 18.9642 17.4544ZM24.8493 17.4544C24.8493 20.1907 23.6436 22.4147 22.1634 22.4147C20.6832 22.4147 19.4775 20.1907 19.4775 17.4544C19.4775 14.7181 20.6832 12.4941 22.1634 12.4941C23.6436 12.4941 24.8493 14.7064 24.8493 17.4544ZM27.2606 17.4544C27.2606 19.9112 26.8428 21.9023 26.3176 21.9023C25.7924 21.9023 25.3745 19.9112 25.3745 17.4544C25.3745 14.9975 25.7924 13.0064 26.3176 13.0064C26.8428 13.0064 27.2606 14.9975 27.2606 17.4544Z" fill="white"/>
</svg>
