<svg width="85" height="85" viewBox="0 0 85 85" fill="none" xmlns="http://www.w3.org/2000/svg">
<path d="M0.561035 7.85478C0.561035 3.82655 3.82656 0.561035 7.85478 0.561035L77.1453 0.561035C81.1736 0.561035 84.4391 3.82656 84.4391 7.85478V18.5381H53.2753C47.6172 18.5381 42.1693 20.7098 38.0787 24.6128L24.3613 37.7009L32.2285 45.9463L45.9459 32.8582C47.9058 30.9882 50.5321 29.9345 53.2753 29.9345H84.4391L84.4391 77.1453C84.4391 81.1736 81.1736 84.4391 77.1453 84.4391L7.85478 84.4391C3.82655 84.4391 0.561035 81.1736 0.561035 77.1453L0.561035 69.6751H29.0191C34.6941 69.6751 40.1482 67.4755 44.2353 63.5383L57.9527 50.3243L50.0462 42.1166L36.3288 55.3306C34.3654 57.222 31.7453 58.2787 29.0191 58.2787H0.561035L0.561035 7.85478Z" fill="#4436AC"/>
</svg>
