<svg width="104" height="104" viewBox="0 0 104 104" fill="none" xmlns="http://www.w3.org/2000/svg">
<path fill-rule="evenodd" clip-rule="evenodd" d="M21.6861 78.2185C17.1506 70.6145 16.1398 70.2544 11.588 62.6605C21.6492 56.1479 31.5498 49.4182 41.8403 43.2427C46.1269 40.6703 50.9534 38.5991 55.0531 35.7489C55.1644 35.6716 50.1031 27.9417 48.8224 25.4915C62.9942 25.1857 77.2095 24.565 91.3971 24.958C86.1314 37.097 78.7256 50.7219 72.0349 62.3562C69.9873 60.4951 66.216 54.2244 64.7759 51.7985C60.9277 53.4926 57.6631 55.942 54.0437 58.0703C43.8431 64.0686 31.4329 71.5158 21.6861 78.2185Z" stroke="#FAE824" stroke-width="1.49006" stroke-miterlimit="1.5" stroke-linecap="round" stroke-linejoin="round"/>
<path d="M82.2435 24.8516C82.154 31.2827 82.1482 38.4422 81.7108 44.8577" stroke="#FAE824" stroke-width="1.49006" stroke-miterlimit="1.5" stroke-linecap="round" stroke-linejoin="round"/>
<path d="M73.7726 24.8975C74.0371 35.8075 74.4123 48.087 73.9517 58.9968" stroke="#FAE824" stroke-width="1.49006" stroke-miterlimit="1.5" stroke-linecap="round" stroke-linejoin="round"/>
<path d="M65.5312 25.1021C65.7965 34.1595 65.6816 44.1739 65.6816 53.2369" stroke="#FAE824" stroke-width="1.49006" stroke-miterlimit="1.5" stroke-linecap="round" stroke-linejoin="round"/>
<path d="M55.0526 35.7324C55.6553 42.0997 56.1956 49.9237 56.9417 56.2702" stroke="#FAE824" stroke-width="1.49006" stroke-miterlimit="1.5" stroke-linecap="round" stroke-linejoin="round"/>
<path d="M46.2619 40.813C46.1306 47.7027 47.0503 55.1569 47.3411 62.0519" stroke="#FAE824" stroke-width="1.49006" stroke-miterlimit="1.5" stroke-linecap="round" stroke-linejoin="round"/>
<path d="M37.5453 45.873C37.2308 52.7308 38.2352 60.6431 38.2468 67.5304" stroke="#FAE824" stroke-width="1.49006" stroke-miterlimit="1.5" stroke-linecap="round" stroke-linejoin="round"/>
<path d="M29.5292 50.9673C29.9094 57.7249 30.497 65.3429 30.9599 72.098" stroke="#FAE824" stroke-width="1.49006" stroke-miterlimit="1.5" stroke-linecap="round" stroke-linejoin="round"/>
<path d="M21.7313 56.0317C21.7214 62.846 22.393 70.3505 23.2755 77.1251" stroke="#FAE824" stroke-width="1.49006" stroke-miterlimit="1.5" stroke-linecap="round" stroke-linejoin="round"/>
</svg>
