<svg width="60" height="60" viewBox="0 0 60 60" fill="none" xmlns="http://www.w3.org/2000/svg">
<path fill-rule="evenodd" clip-rule="evenodd" d="M1.74599 6.69475C0.347656 9.38666 0.347656 12.9232 0.347656 19.9963V39.6201C0.347656 46.6932 0.347656 50.2298 1.74599 52.9217C2.92435 55.1901 4.77396 57.0397 7.0424 58.2181C9.73431 59.6164 13.2709 59.6164 20.344 59.6164H39.9677C47.0409 59.6164 50.5774 59.6164 53.2693 58.2181C55.5378 57.0397 57.3874 55.1901 58.5658 52.9217C59.9641 50.2298 59.9641 46.6932 59.9641 39.6201V19.9963C59.9641 12.9232 59.9641 9.38666 58.5658 6.69475C57.3874 4.4263 55.5378 2.5767 53.2693 1.39834C50.5774 0 47.0409 0 39.9677 0H20.344C13.2709 0 9.73431 0 7.0424 1.39834C4.77396 2.5767 2.92435 4.4263 1.74599 6.69475ZM46.7227 23.661C46.7227 23.2886 46.7179 22.9164 46.7035 22.544C48.2455 21.3423 49.5806 19.8362 50.6413 18.1267C49.2276 18.8038 47.7031 19.2604 46.1049 19.4635C47.7384 18.4141 48.9885 16.7389 49.5806 14.7417C48.053 15.7233 46.3648 16.4342 44.5628 16.8065C43.1235 15.1478 41.0727 14.1152 38.8021 14.1152C34.4407 14.1152 30.9056 17.9405 30.9056 22.6626C30.9056 23.3227 30.9747 23.9826 31.1095 24.6089C24.548 24.2535 18.7279 20.8514 14.835 15.6722C14.1514 16.9416 13.7631 18.4142 13.7631 19.9713C13.7631 22.9333 15.1576 25.5567 17.2789 27.0969C15.984 27.0461 14.7644 26.657 13.699 26.0308V26.1324C13.699 30.2791 16.422 33.7318 20.0373 34.5104C19.3698 34.7135 18.6734 34.8149 17.9561 34.8149C17.4474 34.8149 16.95 34.764 16.467 34.6625C17.4731 38.0475 20.3904 40.5356 23.8452 40.5863C21.1429 42.8882 17.7363 44.2594 14.0375 44.2594C13.4005 44.2594 12.7731 44.2085 12.1553 44.1408C15.6502 46.5612 19.7982 47.9829 24.2592 47.9829C38.7813 47.9829 46.7227 34.9502 46.7227 23.661Z" fill="white"/>
</svg>
