<svg width="35" height="34" viewBox="0 0 35 34" fill="none" xmlns="http://www.w3.org/2000/svg">
<path d="M8.87048 24.8706L10.0902 20.3354C9.10653 18.5687 8.79401 16.5072 9.20998 14.529C9.62595 12.5508 10.7425 10.7888 12.3548 9.56618C13.967 8.34358 15.9669 7.74242 17.9873 7.87303C20.0077 8.00364 21.9131 8.85726 23.354 10.2772C24.7949 11.6972 25.6745 13.5883 25.8314 15.6035C25.9884 17.6187 25.4122 19.6228 24.2085 21.2481C23.0048 22.8734 21.2544 24.0108 19.2785 24.4516C17.3027 24.8925 15.2338 24.6072 13.4516 23.6481L8.87048 24.8706ZM13.6725 21.951L13.9558 22.1188C15.2467 22.8827 16.7544 23.1988 18.244 23.0178C19.7337 22.8369 21.1215 22.1691 22.1913 21.1185C23.261 20.068 23.9526 18.6936 24.1583 17.2096C24.364 15.7256 24.0722 14.2154 23.3284 12.9143C22.5846 11.6132 21.4305 10.5942 20.0461 10.0163C18.6617 9.43832 17.1246 9.3338 15.6745 9.719C14.2243 10.1042 12.9425 10.9575 12.0289 12.1459C11.1152 13.3343 10.621 14.7911 10.6232 16.2892C10.622 17.5314 10.9661 18.7495 11.6172 19.8081L11.7949 20.1005L11.113 22.6318L13.6725 21.951Z" fill="white"/>
<path fill-rule="evenodd" clip-rule="evenodd" d="M20.5488 17.4534C20.3827 17.3197 20.1883 17.2256 19.9802 17.1782C19.7722 17.1309 19.5561 17.1315 19.3483 17.1802C19.0362 17.3096 18.8345 17.7986 18.6328 18.0431C18.5903 18.1017 18.5278 18.1428 18.4571 18.1587C18.3863 18.1746 18.3122 18.1642 18.2487 18.1294C17.1059 17.6826 16.1481 16.8632 15.5307 15.8043C15.4781 15.7382 15.4531 15.6543 15.4612 15.5703C15.4693 15.4862 15.5097 15.4086 15.5739 15.3536C15.7989 15.1313 15.964 14.856 16.0541 14.553C16.0741 14.2189 15.9975 13.8861 15.8332 13.5942C15.7063 13.1851 15.4647 12.8208 15.1369 12.5443C14.9679 12.4684 14.7805 12.443 14.5973 12.4711C14.4141 12.4991 14.243 12.5795 14.1045 12.7025C13.8642 12.9096 13.6734 13.1678 13.5462 13.4582C13.4191 13.7486 13.3588 14.0637 13.3698 14.3805C13.3706 14.5583 13.3931 14.7354 13.437 14.9078C13.5485 15.322 13.72 15.7177 13.9461 16.0823C14.1091 16.3617 14.2871 16.6322 14.4791 16.8925C15.1031 17.7478 15.8876 18.4739 16.7888 19.0307C17.2411 19.3136 17.7245 19.5436 18.2294 19.7162C18.754 19.9536 19.3331 20.0447 19.9053 19.9799C20.2314 19.9306 20.5403 19.8021 20.8049 19.6057C21.0695 19.4092 21.2817 19.1509 21.4228 18.8533C21.5057 18.6736 21.5308 18.4726 21.4948 18.278C21.4084 17.8801 20.8754 17.6452 20.5488 17.4534Z" fill="white"/>
</svg>
