<svg width="513" height="394" viewBox="0 0 513 394" fill="none" xmlns="http://www.w3.org/2000/svg">
<path fill-rule="evenodd" clip-rule="evenodd" d="M13.292 42.6969C14.3114 41.6708 14.9257 40.346 14.9257 38.8997C14.9257 35.6414 11.8083 33 7.96284 33C4.11737 33 1 35.6414 1 38.8997C1 42.158 4.11737 44.7994 7.96284 44.7994C9.70726 44.7994 11.3019 44.2558 12.5236 43.3577L229.287 201.515L230 200.813L13.292 42.6969Z" fill="white"/>
<path fill-rule="evenodd" clip-rule="evenodd" d="M500.227 29.9273C501.318 31.0262 502.792 31.7688 504.466 31.9337C508.235 32.3049 511.586 29.6039 511.951 25.9008C512.316 22.1978 509.556 18.8948 505.786 18.5236C502.017 18.1523 498.666 20.8533 498.301 24.5564C498.133 26.2603 498.627 27.8794 499.576 29.1673L296.063 219.879L296.76 220.596L500.227 29.9273Z" fill="white"/>
<path fill-rule="evenodd" clip-rule="evenodd" d="M12.8954 307.109C12.5261 305.939 11.7576 304.885 10.64 304.17C8.12243 302.557 4.7866 303.273 3.18921 305.767C1.59182 308.261 2.33776 311.59 4.85533 313.202C7.37289 314.815 10.7087 314.1 12.3061 311.605C13.0006 310.521 13.2521 309.279 13.1078 308.088L225.377 245.739L225.086 244.782L12.8954 307.109Z" fill="white"/>
<path fill-rule="evenodd" clip-rule="evenodd" d="M497.027 234.555C497.224 235.645 497.79 236.713 498.706 237.555C500.769 239.453 503.827 239.484 505.536 237.626C507.245 235.767 506.958 232.723 504.895 230.825C502.831 228.928 499.773 228.896 498.064 230.755C497.343 231.538 496.978 232.533 496.95 233.563L300.415 246.225L300.582 247.211L497.027 234.555Z" fill="white"/>
<circle cx="284" cy="223" r="118" fill="#05E1E1" fill-opacity="0.06"/>
<circle cx="284.645" cy="223.645" r="101.88" fill="#05E1E1" fill-opacity="0.03"/>
<circle cx="284" cy="223" r="72.8634" fill="#05E1E1"/>
</svg>
